<?xml version="1.0" encoding="UTF-8"?>
<svg width="196px" height="56px" viewBox="0 0 196 56" version="1.1" xmlns="http://www.w3.org/2000/svg" xmlns:xlink="http://www.w3.org/1999/xlink">
    <title>F1993B40-0183-4499-8AB1-9A10B0678001@2x</title>
    <g id="Page-1" stroke="none" stroke-width="1" fill="none" fill-rule="evenodd">
        <g id="20C-AssetSheet" transform="translate(-108.000000, -416.000000)">
            <g id="20C-Logo-Filled" transform="translate(108.000000, 416.000000)">
                <path d="M27.9674481,1.99491094 C13.6750195,1.99491094 1.99491094,13.5984529 1.99491094,27.8908815 C1.99491094,42.1824869 13.5976296,53.8625954 27.9674481,53.8625954 C42.2598767,53.8625954 53.8625954,42.2598767 53.8625954,27.8908815 C53.8625954,13.5984529 42.2598767,1.99491094 27.9674481,1.99491094" id="Fill-1" fill="#2C2E30"></path>
                <g id="Group-5" fill="#CACCCE">
                    <path d="M192.611839,20.7996722 L195.815191,20.7996722 L193.022525,31.5694629 L193.022525,37.4887372 L189.654898,37.4887372 L189.654898,31.7338872 L186.862232,20.7174601 L190.311996,20.7174601 L191.461917,26.3900979 L192.611839,20.7996722 Z M182.591095,23.6770972 L181.769722,23.6770972 L181.769722,28.2809772 L182.591095,28.2809772 C183.001781,28.2809772 183.166056,28.1165529 183.166056,27.7054922 L183.166056,24.2525822 C183.166056,23.8415215 183.001781,23.6770972 182.591095,23.6770972 L182.591095,23.6770972 Z M186.533683,31.7338872 L186.533683,37.4887372 L183.166056,37.4887372 L183.166056,31.7338872 C183.166056,31.3228265 183.001781,31.1584022 182.591095,31.1584022 L181.769722,31.1584022 L181.769722,37.4887372 L178.402095,37.4887372 L178.402095,20.7174601 L183.412467,20.7174601 C185.465898,20.7174601 186.533683,21.7862179 186.533683,23.8415215 L186.533683,27.0477951 C186.533683,28.4454015 186.040859,29.1853108 185.137349,29.5141594 C186.122996,29.8430079 186.533683,30.5007051 186.533683,31.7338872 L186.533683,31.7338872 Z M177.252174,34.5291001 C177.252174,36.5844037 176.18439,37.6531615 174.130959,37.6531615 L172.077528,37.6531615 C170.024096,37.6531615 168.956312,36.5844037 168.956312,34.5291001 L168.956312,20.7174601 L172.323939,20.7174601 L172.323939,34.1180394 C172.323939,34.5291001 172.488214,34.6935244 172.8989,34.6935244 L173.227449,34.6935244 C173.638135,34.6935244 173.80241,34.5291001 173.80241,34.1180394 L173.80241,20.7174601 L177.170037,20.7174601 L177.170037,34.5291001 L177.252174,34.5291001 Z M162.796019,37.4887372 L162.796019,23.7593093 L160.742588,23.7593093 L160.742588,20.7996722 L168.13494,20.7996722 L168.13494,23.7593093 L166.081509,23.7593093 L166.081509,37.4887372 L162.796019,37.4887372 Z M157.046412,20.7996722 L159.921215,20.7996722 L159.921215,37.5709494 L156.635726,37.5709494 L154.500157,28.4454015 L154.582294,37.5709494 L151.707491,37.5709494 L151.707491,20.7996722 L155.157255,20.7996722 L157.128549,29.1030986 L157.046412,20.7996722 Z M150.639707,20.7996722 L150.639707,23.7593093 L147.764903,23.7593093 L147.764903,27.5410679 L150.475432,27.5410679 L150.475432,30.5007051 L147.764903,30.5007051 L147.764903,34.5291001 L150.639707,34.5291001 L150.639707,37.4887372 L144.397276,37.4887372 L144.397276,20.7174601 L150.639707,20.7174601 L150.639707,20.7996722 Z M143.329492,30.0896444 L143.329492,34.5291001 C143.329492,36.5844037 142.261708,37.6531615 140.208277,37.6531615 L138.154845,37.6531615 C136.101414,37.6531615 135.03363,36.5844037 135.03363,34.5291001 L135.03363,23.6770972 C135.03363,21.6217936 136.101414,20.5530358 138.154845,20.5530358 L140.126139,20.5530358 C142.17957,20.5530358 143.247355,21.6217936 143.247355,23.6770972 L143.247355,27.6232801 L139.961865,27.6232801 L139.961865,24.0881579 C139.961865,23.6770972 139.79759,23.5126729 139.386904,23.5126729 L138.976218,23.5126729 C138.565532,23.5126729 138.401257,23.6770972 138.401257,24.0881579 L138.401257,34.2002515 C138.401257,34.6113122 138.565532,34.7757365 138.976218,34.7757365 L139.386904,34.7757365 C139.79759,34.7757365 139.961865,34.6113122 139.961865,34.2002515 L139.961865,30.1718565 L143.329492,30.1718565 L143.329492,30.0896444 Z M127.88769,27.7877044 L127.88769,20.7174601 L130.433944,20.7174601 L130.433944,37.4887372 L127.88769,37.4887372 L127.88769,30.0896444 L125.423573,30.0896444 L125.423573,37.4887372 L122.877318,37.4887372 L122.877318,20.7174601 L125.423573,20.7174601 L125.423573,27.7877044 L127.88769,27.7877044 Z M117.045574,37.4887372 L117.045574,23.1016122 L114.745731,23.1016122 L114.745731,20.7996722 L121.891671,20.7996722 L121.891671,23.1016122 L119.591828,23.1016122 L119.591828,37.4887372 L117.045574,37.4887372 Z M113.924358,20.7996722 L113.924358,23.1016122 L110.803143,23.1016122 L110.803143,27.8699165 L113.842221,27.8699165 L113.842221,30.1718565 L110.803143,30.1718565 L110.803143,35.1867972 L114.006496,35.1867972 L114.006496,37.4887372 L108.256888,37.4887372 L108.256888,20.7174601 L113.924358,20.7996722 Z M104.149205,37.4887372 L106.696281,37.4887372 L106.696281,20.7174601 L104.149205,20.7174601 L104.149205,37.4887372 Z M98.2361446,37.4887372 L98.2361446,23.1016122 L95.9363017,23.1016122 L95.9363017,20.7996722 L103.082242,20.7996722 L103.082242,23.1016122 L100.782399,23.1016122 L100.782399,37.4887372 L98.2361446,37.4887372 Z M92.6508119,20.7996722 L94.9506548,20.7996722 L94.9506548,37.5709494 L92.1579885,37.5709494 L89.5295966,26.3078858 L89.5295966,37.5709494 L87.2297538,37.5709494 L87.2297538,20.7996722 L90.1866946,20.7996722 L92.5686747,31.2406144 L92.6508119,20.7996722 Z M85.9155579,20.7996722 L85.9155579,23.1016122 L82.7943426,23.1016122 L82.7943426,27.8699165 L85.8334206,27.8699165 L85.8334206,30.1718565 L82.7943426,30.1718565 L82.7943426,35.1867972 L85.9976951,35.1867972 L85.9976951,37.4887372 L80.248088,37.4887372 L80.248088,20.7174601 L85.9155579,20.7996722 Z M66.6954426,20.7996722 L69.2416972,20.7996722 L70.4737559,32.6382208 L71.7879518,20.7996722 L74.2520691,20.7996722 L75.5662651,32.5560087 L76.7983237,20.7996722 L79.1803038,20.7996722 L77.1268727,37.5709494 L74.0877947,37.5709494 L72.9378732,27.5410679 L71.7879518,37.5709494 L68.7488738,37.5709494 L66.6954426,20.7996722 Z M61.2743845,37.4887372 L61.2743845,23.1016122 L58.9745416,23.1016122 L58.9745416,20.7996722 L66.1204819,20.7996722 L66.1204819,23.1016122 L63.8206391,23.1016122 L63.8206391,37.4887372 L61.2743845,37.4887372 Z M38.6866422,28.9386744 L42.5470927,28.9386744 L42.5470927,34.0358272 C42.5470927,36.4199794 41.3971713,37.6531615 38.933054,37.6531615 L36.5510739,37.6531615 C34.1690938,37.6531615 32.9370351,36.4199794 32.9370351,34.0358272 L32.9370351,21.5395815 C32.9370351,19.1554293 34.0869565,17.9222472 36.5510739,17.9222472 L38.8509167,17.9222472 C41.2328968,17.9222472 42.4649555,19.0732172 42.4649555,21.5395815 L42.4649555,26.0612493 L38.604505,26.0612493 L38.604505,21.9506422 C38.604505,21.4573693 38.3580932,21.2929451 37.947407,21.2929451 L37.5367208,21.2929451 C37.0438973,21.2929451 36.8796228,21.5395815 36.8796228,21.9506422 L36.8796228,33.6247665 C36.8796228,34.1180394 37.1260346,34.2824637 37.5367208,34.2824637 L38.0295443,34.2824637 C38.5223677,34.2824637 38.6866422,34.0358272 38.6866422,33.6247665 L38.6866422,28.9386744 Z M28.5016239,33.9536151 C28.5016239,34.6935244 28.1730749,35.1045851 27.4338397,35.1045851 L26.858879,35.1045851 C26.1196438,35.1045851 25.7089576,34.7757365 25.7089576,33.9536151 L25.7089576,21.7040058 C25.7089576,20.9640965 26.0375065,20.5530358 26.858879,20.5530358 L27.4338397,20.5530358 C28.1730749,20.5530358 28.5016239,20.8818843 28.5016239,21.7040058 L28.5016239,33.9536151 Z M27.8445259,17.9222472 L26.3660555,17.9222472 C23.9840754,17.9222472 22.7520168,19.0732172 22.7520168,21.5395815 L22.7520168,34.0358272 C22.7520168,36.4199794 23.9019382,37.6531615 26.3660555,37.6531615 L27.8445259,37.6531615 C30.226506,37.6531615 31.4585647,36.4199794 31.4585647,34.0358272 L31.4585647,21.5395815 C31.4585647,19.1554293 30.3086433,17.9222472 27.8445259,17.9222472 L27.8445259,17.9222472 Z M21.2735464,21.5395815 L21.2735464,24.2525822 C21.2735464,25.6501886 20.9449974,26.6367344 19.795076,28.1165529 L16.6738607,32.0627358 C16.0988999,32.8026451 15.8524882,33.2959179 15.8524882,34.2002515 L15.8524882,34.8579487 L21.2735464,34.8579487 L21.2735464,37.5709494 L12.8955474,37.5709494 L12.8955474,34.1180394 C12.8955474,32.7204329 13.2240964,31.7338872 14.4561551,30.2540686 L17.5773704,26.3078858 C18.1523311,25.5679765 18.3166056,25.1569158 18.3166056,24.4170065 L18.3166056,21.7040058 C18.3166056,20.9640965 17.9880566,20.5530358 17.2488214,20.5530358 L16.9202724,20.5530358 C16.1810372,20.5530358 15.8524882,20.8818843 15.8524882,21.7040058 L15.8524882,25.1569158 L13.0598219,25.1569158 L13.0598219,21.5395815 C13.0598219,19.1554293 14.2097433,17.9222472 16.5917234,17.9222472 L17.7416448,17.9222472 C20.1236249,17.9222472 21.2735464,19.1554293 21.2735464,21.5395815 L21.2735464,21.5395815 Z M27.7623887,51.711438 C14.5382923,51.711438 3.69617601,40.9416472 3.69617601,27.6232801 C3.69617601,14.387125 14.4561551,3.61733429 27.7623887,3.61733429 C40.9864851,3.61733429 51.7464641,14.387125 51.7464641,27.6232801 C51.7464641,40.9416472 40.9864851,51.711438 27.7623887,51.711438 L27.7623887,51.711438 Z M27.7623887,0 C12.4848612,0 0,12.4140336 0,27.7054922 C0,42.9969508 12.4027239,55.4931966 27.7623887,55.4931966 C43.0399162,55.4931966 55.4426401,43.079163 55.4426401,27.7054922 C55.4426401,12.4140336 43.0399162,0 27.7623887,0 L27.7623887,0 Z" id="20c-logo-small"></path>
                </g>
            </g>
        </g>
    </g>
</svg>