<?xml version="1.0" encoding="UTF-8"?>
<svg width="16px" height="16px" viewBox="0 0 16 16" version="1.1" xmlns="http://www.w3.org/2000/svg" xmlns:xlink="http://www.w3.org/1999/xlink">
    <!-- Generator: sketchtool 64 (101010) - https://sketch.com -->
    <title>140F1187-0281-4FF4-8A28-FB3F88E7BE1B</title>
    <desc>Created with sketchtool.</desc>
    <g id="PrefixCTL" stroke="none" stroke-width="1" fill="none" fill-rule="evenodd">
        <g id="FullCTL-AssetSheet" transform="translate(-340.000000, -168.000000)" fill="#D0021B" fill-rule="nonzero">
            <g id="Indicator/X" transform="translate(340.000000, 168.000000)">
                <path d="M8,0 C9.10417219,0 10.1432243,0.20833125 11.1171875,0.625 C12.0911507,1.04166875 12.9401005,1.61197555 13.6640625,2.3359375 C14.3880245,3.05989945 14.9583313,3.9088493 15.375,4.8828125 C15.7916687,5.8567757 16,6.89582781 16,8 C16,9.10417219 15.7916687,10.1432243 15.375,11.1171875 C14.9583313,12.0911507 14.3880245,12.9401005 13.6640625,13.6640625 C12.9401005,14.3880245 12.0911507,14.9583312 11.1171875,15.375 C10.1432243,15.7916688 9.10417219,16 8,16 C6.89582781,16 5.8567757,15.7916688 4.8828125,15.375 C3.9088493,14.9583312 3.05989945,14.3880245 2.3359375,13.6640625 C1.61197555,12.9401005 1.04166875,12.0911507 0.625,11.1171875 C0.20833125,10.1432243 0,9.10417219 0,8 C0,6.89582781 0.20833125,5.8567757 0.625,4.8828125 C1.04166875,3.9088493 1.61197555,3.05989945 2.3359375,2.3359375 C3.05989945,1.61197555 3.9088493,1.04166875 4.8828125,0.625 C5.8567757,0.20833125 6.89582781,0 8,0 Z M8,15.015625 C8.96875484,15.015625 9.87759992,14.830731 10.7265625,14.4609375 C11.5755251,14.091144 12.315101,13.5885448 12.9453125,12.953125 C13.575524,12.3177052 14.075519,11.5755251 14.4453125,10.7265625 C14.815106,9.87759992 15,8.96875484 15,8 C15,7.03124516 14.815106,6.12240008 14.4453125,5.2734375 C14.075519,4.42447492 13.575524,3.68489898 12.9453125,3.0546875 C12.315101,2.42447602 11.5755251,1.92448102 10.7265625,1.5546875 C9.87759992,1.18489398 8.96875484,1 8,1 C7.03124516,1 6.12240008,1.18489398 5.2734375,1.5546875 C4.42447492,1.92448102 3.68489898,2.42447602 3.0546875,3.0546875 C2.42447602,3.68489898 1.92448102,4.42447492 1.5546875,5.2734375 C1.18489398,6.12240008 1,7.03124516 1,8 C1,8.96875484 1.18489398,9.87759992 1.5546875,10.7265625 C1.92448102,11.5755251 2.42447602,12.3177052 3.0546875,12.953125 C3.68489898,13.5885448 4.42447492,14.091144 5.2734375,14.4609375 C6.12240008,14.830731 7.03124516,15.015625 8,15.015625 Z M10.828125,5.171875 C10.9218755,5.26562547 10.96875,5.3828118 10.96875,5.5234375 C10.96875,5.6640632 10.9218755,5.78124953 10.828125,5.875 L8.703125,8 L10.828125,10.125 C10.9218755,10.2187505 10.96875,10.3359368 10.96875,10.4765625 C10.96875,10.6171882 10.9218755,10.7343745 10.828125,10.828125 C10.7343745,10.9218755 10.6171882,10.96875 10.4765625,10.96875 C10.3359368,10.96875 10.2187505,10.9218755 10.125,10.828125 L8,8.703125 L5.875,10.828125 C5.78124953,10.9218755 5.6640632,10.96875 5.5234375,10.96875 C5.3828118,10.96875 5.26562547,10.9218755 5.171875,10.828125 C5.07812453,10.7343745 5.03125,10.6171882 5.03125,10.4765625 C5.03125,10.3359368 5.07812453,10.2187505 5.171875,10.125 L7.296875,8 L5.171875,5.875 C5.07812453,5.78124953 5.03125,5.6640632 5.03125,5.5234375 C5.03125,5.3828118 5.07812453,5.26562547 5.171875,5.171875 C5.26562547,5.07812453 5.3828118,5.03125 5.5234375,5.03125 C5.6640632,5.03125 5.78124953,5.07812453 5.875,5.171875 L8,7.296875 L10.125,5.171875 C10.2187505,5.07812453 10.3359368,5.03125 10.4765625,5.03125 C10.6171882,5.03125 10.7343745,5.07812453 10.828125,5.171875 Z" id=""></path>
            </g>
        </g>
    </g>
</svg>