<?xml version="1.0" encoding="UTF-8"?>
<svg width="16px" height="16px" viewBox="0 0 16 16" version="1.1" xmlns="http://www.w3.org/2000/svg" xmlns:xlink="http://www.w3.org/1999/xlink">
    <!-- Generator: sketchtool 64 (101010) - https://sketch.com -->
    <title>6E7A27DD-8FC5-4464-84D1-5F687F4ABC2C</title>
    <desc>Created with sketchtool.</desc>
    <g id="PrefixCTL" stroke="none" stroke-width="1" fill="none" fill-rule="evenodd">
        <g id="FullCTL-AssetSheet" transform="translate(-308.000000, -168.000000)" fill="#7ED321" fill-rule="nonzero">
            <g id="Indicator/Check" transform="translate(308.000000, 168.000000)">
                <path d="M8,0 C9.10417219,0 10.1432243,0.20833125 11.1171875,0.625 C12.0911507,1.04166875 12.9401005,1.61197555 13.6640625,2.3359375 C14.3880245,3.05989945 14.9583312,3.9088493 15.375,4.8828125 C15.7916688,5.8567757 16,6.89582781 16,8 C16,9.10417219 15.7916688,10.1432243 15.375,11.1171875 C14.9583312,12.0911507 14.3880245,12.9401005 13.6640625,13.6640625 C12.9401005,14.3880245 12.0911507,14.9583313 11.1171875,15.375 C10.1432243,15.7916687 9.10417219,16 8,16 C6.89582781,16 5.8567757,15.7916687 4.8828125,15.375 C3.9088493,14.9583313 3.05989945,14.3880245 2.3359375,13.6640625 C1.61197555,12.9401005 1.04166875,12.0911507 0.625,11.1171875 C0.20833125,10.1432243 0,9.10417219 0,8 C0,6.89582781 0.20833125,5.8567757 0.625,4.8828125 C1.04166875,3.9088493 1.61197555,3.05989945 2.3359375,2.3359375 C3.05989945,1.61197555 3.9088493,1.04166875 4.8828125,0.625 C5.8567757,0.20833125 6.89582781,0 8,0 Z M8,15.015625 C8.96875484,15.015625 9.87759992,14.830731 10.7265625,14.4609375 C11.5755251,14.091144 12.315101,13.5885448 12.9453125,12.953125 C13.575524,12.3177052 14.075519,11.5755251 14.4453125,10.7265625 C14.815106,9.87759992 15,8.96875484 15,8 C15,7.03124516 14.815106,6.12240008 14.4453125,5.2734375 C14.075519,4.42447492 13.575524,3.68489898 12.9453125,3.0546875 C12.315101,2.42447602 11.5755251,1.92448102 10.7265625,1.5546875 C9.87759992,1.18489398 8.96875484,1 8,1 C7.03124516,1 6.12240008,1.18489398 5.2734375,1.5546875 C4.42447492,1.92448102 3.68489898,2.42447602 3.0546875,3.0546875 C2.42447602,3.68489898 1.92448102,4.42447492 1.5546875,5.2734375 C1.18489398,6.12240008 1,7.03124516 1,8 C1,8.96875484 1.18489398,9.87759992 1.5546875,10.7265625 C1.92448102,11.5755251 2.42447602,12.3177052 3.0546875,12.953125 C3.68489898,13.5885448 4.42447492,14.091144 5.2734375,14.4609375 C6.12240008,14.830731 7.03124516,15.015625 8,15.015625 Z M11.1875,5.078125 C11.2916672,4.97395781 11.4114577,4.921875 11.546875,4.921875 C11.6822923,4.921875 11.8020828,4.97395781 11.90625,5.078125 C12.0000005,5.17187547 12.046875,5.2890618 12.046875,5.4296875 C12.046875,5.5703132 12.0000005,5.68749953 11.90625,5.78125 L6.921875,10.796875 C6.91145828,10.8072917 6.90104172,10.8177083 6.890625,10.828125 C6.88020828,10.8385417 6.86979172,10.8489583 6.859375,10.859375 C6.76562453,10.9635422 6.6484382,11.015625 6.5078125,11.015625 C6.3671868,11.015625 6.25000047,10.9635422 6.15625,10.859375 L3.671875,8.390625 C3.57812453,8.29687453 3.53125,8.1796882 3.53125,8.0390625 C3.53125,7.8984368 3.57812453,7.78125047 3.671875,7.6875 C3.77604219,7.58333281 3.89583266,7.53125 4.03125,7.53125 C4.16666734,7.53125 4.28645781,7.58333281 4.390625,7.6875 L6.5,9.796875 L11.1875,5.078125 Z" id=""></path>
            </g>
        </g>
    </g>
</svg>