<?xml version="1.0" encoding="UTF-8"?>
<svg width="97px" height="41px" viewBox="0 0 97 41" version="1.1" xmlns="http://www.w3.org/2000/svg" xmlns:xlink="http://www.w3.org/1999/xlink">
    <!-- Generator: sketchtool 64 (101010) - https://sketch.com -->
    <title>89A4AC12-6534-44C6-81FB-B6239E997E99</title>
    <desc>Created with sketchtool.</desc>
    <defs>
        <polygon id="path-1" points="0.30992 0.40976 57.4746667 0.40976 57.4746667 36.73616 0.30992 36.73616"></polygon>
    </defs>
    <g id="PrefixCTL" stroke="none" stroke-width="1" fill="none" fill-rule="evenodd">
        <g id="FullCTL-AssetSheet" transform="translate(-442.000000, -65.000000)">
            <g id="ixctl-logo-darkbg" transform="translate(442.000000, 65.000000)">
                <path d="M67.6197867,35.06928 C60.1216533,42.5674133 47.9648533,42.5674133 40.46672,35.06928 C32.9685867,27.5711467 32.9685867,15.4143467 40.46672,7.91621333 C47.9648533,0.41808 60.1216533,0.41808 67.6197867,7.91621333 L65.9221867,9.61328 C59.37232,3.06288 48.7141867,3.06288 42.16432,9.61328 C35.6133867,16.16368 35.6133867,26.8218133 42.16432,33.3722133 C48.7141867,39.9226133 59.37232,39.9226133 65.9221867,33.3722133 L67.6197867,33.3722133 L67.6197867,35.06928 Z" id="Fill-1" fill="#D1FF27"></path>
                <g id="Group-5" transform="translate(39.333333, 1.882827)">
                    <mask id="mask-2" fill="white">
                        <use xlink:href="#path-1"></use>
                    </mask>
                    <g id="Clip-4"></g>
                    <path d="M14.70992,7.61562667 C11.6368533,7.61562667 8.56432,8.78522667 6.22458667,11.1244267 C1.54565333,15.80336 1.54565333,23.41616 6.22458667,28.0950933 L7.92165333,26.3980267 C4.17232,22.6486933 4.17232,16.5708267 7.92165333,12.8214933 C9.79632,10.94736 12.2533867,10.00976 14.70992,10.00976 L14.70992,7.61562667 Z M24.89232,9.42736 L24.89232,11.1244267 L24.89232,14.51856 L21.49872,14.51856 L19.80112,14.51856 C16.9936533,11.7116267 12.4261867,11.7116267 9.61872,14.51856 C6.81125333,17.3260267 6.81125333,21.8934933 9.61872,24.70096 C12.4261867,27.5084267 16.9936533,27.5084267 19.80112,24.70096 L24.89232,29.79216 C19.2688533,35.4156267 10.1509867,35.4156267 4.52752,29.79216 C-1.09594667,24.1686933 -1.09594667,15.0508267 4.52752,9.42736 C10.1509867,3.80389333 19.2688533,3.80389333 24.89232,9.42736 L24.89232,9.42736 Z M49.5397867,36.2662933 L57.47472,36.2662933 L57.47472,0.410293333 L49.5397867,0.410293333 L49.5397867,36.2662933 Z M39.5653867,8.28549333 L46.1429867,8.28549333 L46.1429867,14.51856 L39.5653867,14.51856 L39.5653867,27.0262933 C39.5653867,28.8534933 40.3477867,29.74096 42.1232533,29.74096 C43.5845867,29.74096 44.8896533,29.3756267 46.03792,28.74896 L46.03792,35.1180267 C44.36752,36.1094933 42.4357867,36.73616 39.77392,36.73616 C34.91952,36.73616 31.6304533,34.8044267 31.6304533,28.33136 L31.6304533,14.51856 L28.28912,14.51856 L28.28912,8.28549333 L31.6304533,8.28549333 L31.6304533,0.40976 L39.5653867,0.40976 L39.5653867,8.28549333 Z" id="Fill-3" fill="#F1F2F2" mask="url(#mask-2)"></path>
                </g>
                <path d="M34.9474133,38.14896 L30.2007467,38.14896 L21.66688,26.8950933 L13.07968,38.14896 L8.49248,38.14896 L19.31968,24.1212267 L8.91914667,10.5740267 L13.6130133,10.5740267 L21.7735467,21.2412267 L29.93408,10.5740267 L34.5207467,10.5740267 L24.06688,24.0150933 L34.9474133,38.14896 Z M0.280213333,4.54682667 L4.97408,4.54682667 L4.97408,0.0134933333 L0.280213333,0.0134933333 L0.280213333,4.54682667 Z M0.54688,38.14896 L4.65354667,38.14896 L4.65354667,10.5740267 L0.54688,10.5740267 L0.54688,38.14896 Z" id="Fill-6" fill="#0099FF"></path>
            </g>
        </g>
    </g>
</svg>