<?xml version="1.0" encoding="UTF-8"?>
<svg width="191px" height="48px" viewBox="0 0 191 48" version="1.1" xmlns="http://www.w3.org/2000/svg" xmlns:xlink="http://www.w3.org/1999/xlink">
    <!-- Generator: sketchtool 64 (101010) - https://sketch.com -->
    <title>BB3BF916-E40E-4258-AEBF-00C2B3A7404D</title>
    <desc>Created with sketchtool.</desc>
    <defs>
        <polygon id="path-1" points="0.30992 0.40976 57.4746667 0.40976 57.4746667 36.73616 0.30992 36.73616"></polygon>
    </defs>
    <g id="PrefixCTL" stroke="none" stroke-width="1" fill="none" fill-rule="evenodd">
        <g id="FullCTL-AssetSheet" transform="translate(-180.000000, -64.000000)">
            <g id="prefixctl-logo-darkbg" transform="translate(180.000000, 64.000000)">
                <path d="M161.619787,36.06928 C154.121653,43.5674133 141.964853,43.5674133 134.46672,36.06928 C126.968587,28.5711467 126.968587,16.4143467 134.46672,8.91621333 C141.964853,1.41808 154.121653,1.41808 161.619787,8.91621333 L159.922187,10.61328 C153.37232,4.06288 142.714187,4.06288 136.16432,10.61328 C129.613387,17.16368 129.613387,27.8218133 136.16432,34.3722133 C142.714187,40.9226133 153.37232,40.9226133 159.922187,34.3722133 L161.619787,34.3722133 L161.619787,36.06928 Z" id="Fill-1" fill="#D1FF27"></path>
                <g id="Group-5" transform="translate(133.333333, 2.882827)">
                    <mask id="mask-2" fill="white">
                        <use xlink:href="#path-1"></use>
                    </mask>
                    <g id="Clip-4"></g>
                    <path d="M14.70992,7.61562667 C11.6368533,7.61562667 8.56432,8.78522667 6.22458667,11.1244267 C1.54565333,15.80336 1.54565333,23.41616 6.22458667,28.0950933 L7.92165333,26.3980267 C4.17232,22.6486933 4.17232,16.5708267 7.92165333,12.8214933 C9.79632,10.94736 12.2533867,10.00976 14.70992,10.00976 L14.70992,7.61562667 Z M24.89232,9.42736 L24.89232,11.1244267 L24.89232,14.51856 L21.49872,14.51856 L19.80112,14.51856 C16.9936533,11.7116267 12.4261867,11.7116267 9.61872,14.51856 C6.81125333,17.3260267 6.81125333,21.8934933 9.61872,24.70096 C12.4261867,27.5084267 16.9936533,27.5084267 19.80112,24.70096 L24.89232,29.79216 C19.2688533,35.4156267 10.1509867,35.4156267 4.52752,29.79216 C-1.09594667,24.1686933 -1.09594667,15.0508267 4.52752,9.42736 C10.1509867,3.80389333 19.2688533,3.80389333 24.89232,9.42736 L24.89232,9.42736 Z M49.5397867,36.2662933 L57.47472,36.2662933 L57.47472,0.410293333 L49.5397867,0.410293333 L49.5397867,36.2662933 Z M39.5653867,8.28549333 L46.1429867,8.28549333 L46.1429867,14.51856 L39.5653867,14.51856 L39.5653867,27.0262933 C39.5653867,28.8534933 40.3477867,29.74096 42.1232533,29.74096 C43.5845867,29.74096 44.8896533,29.3756267 46.03792,28.74896 L46.03792,35.1180267 C44.36752,36.1094933 42.4357867,36.73616 39.77392,36.73616 C34.91952,36.73616 31.6304533,34.8044267 31.6304533,28.33136 L31.6304533,14.51856 L28.28912,14.51856 L28.28912,8.28549333 L31.6304533,8.28549333 L31.6304533,0.40976 L39.5653867,0.40976 L39.5653867,8.28549333 Z" id="Fill-3" fill="#F1F2F2" mask="url(#mask-2)"></path>
                </g>
                <path d="M128.947413,39.14896 L124.200747,39.14896 L115.66688,27.8950933 L107.07968,39.14896 L102.49248,39.14896 L113.31968,25.1212267 L102.919147,11.5740267 L107.613013,11.5740267 L115.773547,22.2412267 L123.93408,11.5740267 L128.520747,11.5740267 L118.06688,25.0150933 L128.947413,39.14896 Z M94.2802133,5.54682667 L98.97408,5.54682667 L98.97408,1.01349333 L94.2802133,1.01349333 L94.2802133,5.54682667 Z M94.54688,39.14896 L98.6535467,39.14896 L98.6535467,11.5740267 L94.54688,11.5740267 L94.54688,39.14896 Z M87.66848,0.00016 C89.5879467,0.00016 90.86848,0.213493333 92.2018133,0.693493333 L92.2018133,4.26736 C90.70848,3.84016 89.5879467,3.57349333 88.2018133,3.57349333 C85.0018133,3.57349333 83.40128,5.49349333 83.40128,9.44069333 L83.40128,11.6806933 L92.14848,11.6806933 L92.14848,15.2012267 L83.4546133,15.2012267 L83.4546133,39.14896 L79.3474133,39.14896 L79.3474133,15.2012267 L75.5607467,15.2012267 L75.5607467,11.62736 L79.3474133,11.62736 L79.3474133,9.22682667 C79.3474133,3.20016 82.3879467,0.00016 87.66848,0.00016 L87.66848,0.00016 Z M51.88128,23.84176 C52.4146133,18.45456 56.0418133,14.4540267 60.8418133,14.4540267 C66.33568,14.4540267 69.21568,18.82736 69.6423467,23.84176 L51.88128,23.84176 Z M60.94848,10.98736 C53.32128,10.98736 47.7207467,17.38736 47.7207467,25.3878933 C47.7207467,33.9756267 53.9079467,39.78896 61.4818133,39.78896 C66.7090133,39.78896 70.0690133,37.70896 72.84288,34.6156267 L70.2823467,32.32176 C68.0423467,34.66896 65.37568,36.2156267 61.58848,36.2156267 C56.7351467,36.2156267 52.4679467,32.8550933 51.88128,26.88176 L73.7490133,26.88176 C73.80288,26.40176 73.80288,25.9750933 73.80288,25.60176 C73.80288,17.4940267 69.1090133,10.98736 60.94848,10.98736 L60.94848,10.98736 Z M47.5735467,11.0940267 L47.5735467,15.5206933 L47.2535467,15.5206933 C41.2263467,15.5206933 36.3191467,19.8412267 36.3191467,28.16176 L36.3191467,39.14896 L32.21248,39.14896 L32.21248,11.5740267 L36.3191467,11.5740267 L36.3191467,18.77456 C38.3463467,14.18736 42.3463467,10.8806933 47.5735467,11.0940267 L47.5735467,11.0940267 Z M13.9207467,36.0556267 C8.80074667,36.0556267 3.94688,31.7884267 3.94688,25.3350933 C3.94688,18.93456 8.80074667,14.6678933 13.9207467,14.6678933 C19.1479467,14.6678933 23.6279467,18.82736 23.6279467,25.3878933 C23.6279467,32.10896 19.2546133,36.0556267 13.9207467,36.0556267 L13.9207467,36.0556267 Z M14.6679467,10.98736 C9.60074667,10.98736 6.34741333,13.8140267 4.10688,17.1206933 L4.10688,11.5740267 L0.000213333333,11.5740267 L0.000213333333,47.6828267 L4.10688,47.6828267 L4.10688,33.86896 C6.24074667,36.9622933 9.54741333,39.73616 14.6679467,39.73616 C21.3351467,39.73616 27.8418133,34.4022933 27.8418133,25.3350933 C27.8418133,16.21456 21.28128,10.98736 14.6679467,10.98736 L14.6679467,10.98736 Z" id="Fill-6" fill="#4ECDC4"></path>
            </g>
        </g>
    </g>
</svg>