<?xml version="1.0" encoding="UTF-8"?>
<svg width="16px" height="16px" viewBox="0 0 16 16" version="1.1" xmlns="http://www.w3.org/2000/svg" xmlns:xlink="http://www.w3.org/1999/xlink">
    <!-- Generator: sketchtool 64 (101010) - https://sketch.com -->
    <title>1BB71D99-40D8-4B36-8A03-96371CC7F9F4</title>
    <desc>Created with sketchtool.</desc>
    <g id="PrefixCTL" stroke="none" stroke-width="1" fill="none" fill-rule="evenodd">
        <g id="FullCTL-AssetSheet" transform="translate(-276.000000, -168.000000)" fill="#4ECDC4">
            <g id="icon/add" transform="translate(276.000000, 168.000000)">
                <path d="M8,0 C9.10417219,0 10.1432243,0.20833125 11.1171875,0.625 C12.0911507,1.04166875 12.9401005,1.61197555 13.6640625,2.3359375 C14.3880245,3.05989945 14.9583313,3.9088493 15.375,4.8828125 C15.7916687,5.8567757 16,6.89582781 16,8 C16,9.10417219 15.7916687,10.1432243 15.375,11.1171875 C14.9583313,12.0911507 14.3880245,12.9401005 13.6640625,13.6640625 C12.9401005,14.3880245 12.0911507,14.9583313 11.1171875,15.375 C10.1432243,15.7916687 9.10417219,16 8,16 C6.89582781,16 5.8567757,15.7916687 4.8828125,15.375 C3.9088493,14.9583313 3.05989945,14.3880245 2.3359375,13.6640625 C1.61197555,12.9401005 1.04166875,12.0911507 0.625,11.1171875 C0.20833125,10.1432243 0,9.10417219 0,8 C0,6.89582781 0.20833125,5.8567757 0.625,4.8828125 C1.04166875,3.9088493 1.61197555,3.05989945 2.3359375,2.3359375 C3.05989945,1.61197555 3.9088493,1.04166875 4.8828125,0.625 C5.8567757,0.20833125 6.89582781,0 8,0 Z M8,15.015625 C8.96875484,15.015625 9.87759992,14.830731 10.7265625,14.4609375 C11.5755251,14.091144 12.315101,13.5885448 12.9453125,12.953125 C13.575524,12.3177052 14.075519,11.5755251 14.4453125,10.7265625 C14.815106,9.87759992 15,8.96875484 15,8 C15,7.03124516 14.815106,6.12240008 14.4453125,5.2734375 C14.075519,4.42447492 13.575524,3.68489898 12.9453125,3.0546875 C12.315101,2.42447602 11.5755251,1.92448102 10.7265625,1.5546875 C9.87759992,1.18489398 8.96875484,1 8,1 C7.03124516,1 6.12240008,1.18489398 5.2734375,1.5546875 C4.42447492,1.92448102 3.68489898,2.42447602 3.0546875,3.0546875 C2.42447602,3.68489898 1.92448102,4.42447492 1.5546875,5.2734375 C1.18489398,6.12240008 1,7.03124516 1,8 C1,8.96875484 1.18489398,9.87759992 1.5546875,10.7265625 C1.92448102,11.5755251 2.42447602,12.3177052 3.0546875,12.953125 C3.68489898,13.5885448 4.42447492,14.091144 5.2734375,14.4609375 C6.12240008,14.830731 7.03124516,15.015625 8,15.015625 Z M11.5,7.5 C11.6354173,7.5 11.7526037,7.54947867 11.8515625,7.6484375 C11.9505213,7.74739633 12,7.86458266 12,8 C12,8.13541734 11.9505213,8.25260367 11.8515625,8.3515625 C11.7526037,8.45052133 11.6354173,8.5 11.5,8.5 L8.5,8.5 L8.5,11.5 C8.5,11.6354173 8.45052133,11.7526037 8.3515625,11.8515625 C8.25260367,11.9505213 8.13541734,12 8,12 C7.86458266,12 7.74739633,11.9505213 7.6484375,11.8515625 C7.54947867,11.7526037 7.5,11.6354173 7.5,11.5 L7.5,8.5 L4.5,8.5 C4.36458266,8.5 4.24739633,8.45052133 4.1484375,8.3515625 C4.04947867,8.25260367 4,8.13541734 4,8 C4,7.86458266 4.04947867,7.74739633 4.1484375,7.6484375 C4.24739633,7.54947867 4.36458266,7.5 4.5,7.5 L7.5,7.5 L7.5,4.5 C7.5,4.36458266 7.54947867,4.24739633 7.6484375,4.1484375 C7.74739633,4.04947867 7.86458266,4 8,4 C8.13541734,4 8.25260367,4.04947867 8.3515625,4.1484375 C8.45052133,4.24739633 8.5,4.36458266 8.5,4.5 L8.5,7.5 L11.5,7.5 Z" id=""></path>
            </g>
        </g>
    </g>
</svg>