<?xml version="1.0" encoding="UTF-8"?>
<svg width="14px" height="16px" viewBox="0 0 14 16" version="1.1" xmlns="http://www.w3.org/2000/svg" xmlns:xlink="http://www.w3.org/1999/xlink">
    <!-- Generator: sketchtool 64 (101010) - https://sketch.com -->
    <title>2DFD7163-CD82-4602-B5C2-0213B50A30E4</title>
    <desc>Created with sketchtool.</desc>
    <g id="PrefixCTL" stroke="none" stroke-width="1" fill="none" fill-rule="evenodd">
        <g id="FullCTL-AssetSheet" transform="translate(-181.000000, -216.000000)" fill="#FFFFFF">
            <g id="icon/alerts" transform="translate(180.000000, 216.000000)">
                <path d="M14.2212323,11.1311155 C14.4948546,11.4651028 14.710592,11.7625558 14.868451,12.0234834 C15.02631,12.284411 15.0420956,12.5453346 14.9158084,12.8062622 C14.7895212,13.0671898 14.5843076,13.2185256 14.3001614,13.260274 C14.0160152,13.3020224 13.795016,13.3228963 13.637157,13.3228963 L10.6852085,13.3228963 C10.6852085,14.0639306 10.4221142,14.6953659 9.89591751,15.2172211 C9.36972087,15.7390763 8.73303247,16 7.98583323,16 C7.23863399,16 6.6019456,15.7390763 6.07574895,15.2172211 C5.5495523,14.6953659 5.28645792,14.0639306 5.28645792,13.3228963 L2.39765277,13.3228963 C2.15560231,13.3228963 1.90566265,13.2941947 1.6478263,13.2367906 C1.38998994,13.1793865 1.20319293,13.0358785 1.08742967,12.8062622 C0.961142471,12.5453346 0.971666246,12.2765832 1.11900131,12 C1.26633637,11.7234168 1.4662881,11.418136 1.71886249,11.0841487 C2.00300868,10.7188501 2.31346004,10.3039814 2.6502259,9.83953033 C2.98699175,9.37507922 3.15537215,8.89237041 3.15537215,8.39138943 L3.15537215,5.11937378 C3.15537215,4.40965072 3.27902651,3.74429534 3.52633894,3.12328767 C3.77365136,2.50228 4.11304311,1.95955875 4.54452436,1.49510763 C4.97600561,1.03065652 5.4864087,0.665363366 6.07574895,0.399217221 C6.6650892,0.133071076 7.2965157,0 7.97004741,0 C8.65410305,0 9.29079145,0.133071076 9.88013169,0.399217221 C10.4694719,0.665363366 10.982506,1.03065652 11.4192492,1.49510763 C11.8559924,1.95955875 12.1980151,2.50228 12.4453275,3.12328767 C12.69264,3.74429534 12.8162943,4.40965072 12.8162943,5.11937378 L12.8162943,8.39138943 C12.8162943,8.90280751 12.9767819,9.3985625 13.2977618,9.87866928 C13.6187418,10.358776 13.9265622,10.7762539 14.2212323,11.1311155 Z M7.98583323,14.9510763 C8.43836235,14.9510763 8.82511108,14.7919129 9.14609104,14.4735812 C9.46707099,14.1552495 9.62755857,13.7716917 9.62755857,13.3228963 L6.3441079,13.3228963 C6.3441079,13.7716917 6.50459547,14.1552495 6.82557542,14.4735812 C7.14655538,14.7919129 7.53330411,14.9510763 7.98583323,14.9510763 Z M13.7476577,12.258317 C13.6950381,12.1852573 13.6371573,12.1095894 13.5740137,12.0313112 C13.5108701,11.9530329 13.4477274,11.877365 13.3845838,11.8043053 C13.0372941,11.3868211 12.6768548,10.8884569 12.3032551,10.3091977 C11.9296555,9.7299384 11.7428585,9.09067538 11.7428585,8.39138943 L11.7428585,5.11937378 C11.7428585,4.55577018 11.6455136,4.02870434 11.4508208,3.53816047 C11.2561281,3.04761659 10.9904028,2.61970176 10.6536369,2.25440313 C10.316871,1.8891045 9.91959853,1.59947922 9.46180745,1.38551859 C9.00401637,1.17155796 8.50676799,1.06457926 7.97004741,1.06457926 C7.44385076,1.06457926 6.95186428,1.17155796 6.49407319,1.38551859 C6.03628211,1.59947922 5.6390096,1.8891045 5.30224374,2.25440313 C4.96547789,2.61970176 4.70238351,3.04761659 4.51295272,3.53816047 C4.32352193,4.02870434 4.22880795,4.55577018 4.22880795,5.11937378 L4.22880795,8.39138943 C4.22880795,9.06980117 4.03148717,9.69340877 3.63683968,10.2622309 C3.24219219,10.8310531 2.89227667,11.3189804 2.58708262,11.7260274 C2.52393902,11.8095242 2.45816542,11.8982383 2.38975986,11.9921722 C2.32135429,12.0861061 2.26084259,12.1748202 2.20822292,12.258317 L13.7476577,12.258317 Z" id=""></path>
            </g>
        </g>
    </g>
</svg>