<?xml version="1.0" encoding="UTF-8"?>
<svg width="16px" height="16px" viewBox="0 0 16 16" version="1.1" xmlns="http://www.w3.org/2000/svg" xmlns:xlink="http://www.w3.org/1999/xlink">
    <title>5570B0BB-444C-486A-9B7F-C55DB93BE818</title>
    <g id="PrefixCTL" stroke="none" stroke-width="1" fill="none" fill-rule="evenodd">
        <g id="FullCTL-AssetSheet" transform="translate(-436.000000, -216.000000)" fill="#BCBEC0">
            <g id="icon/code" transform="translate(436.000000, 216.000000)">
                <path d="M5.37595628,11.6105647 L4.99344262,11.9930783 C4.9424408,12.0440801 4.88378871,12.0695811 4.81748634,12.0695811 C4.75118397,12.0695811 4.69253188,12.0440801 4.64153005,11.9930783 L1.07650273,8.428051 C1.02550091,8.37704918 1,8.31839709 1,8.25209472 C1,8.18579235 1.02550091,8.12714026 1.07650273,8.07613843 L4.64153005,4.51111111 C4.69253188,4.46010929 4.75118397,4.43460838 4.81748634,4.43460838 C4.88378871,4.43460838 4.9424408,4.46010929 4.99344262,4.51111111 L5.37595628,4.89362477 C5.42695811,4.94462659 5.45245902,5.00327869 5.45245902,5.06958106 C5.45245902,5.13588342 5.42695811,5.19453552 5.37595628,5.24553734 L2.36939891,8.25209472 L5.37595628,11.2586521 C5.42695811,11.3096539 5.45245902,11.368306 5.45245902,11.4346084 C5.45245902,11.5009107 5.42695811,11.5595628 5.37595628,11.6105647 Z M9.89726776,3.44772313 L7.04371585,13.3242259 C7.02331512,13.3905282 6.98378871,13.440255 6.92513661,13.4734062 C6.86648452,13.5065574 6.80655738,13.5129326 6.74535519,13.4925319 L6.27103825,13.3624772 C6.20473588,13.3420765 6.15500911,13.3025501 6.12185792,13.243898 C6.08870674,13.1852459 6.08233151,13.1227687 6.10273224,13.0564663 L8.95628415,3.17996357 C8.97668488,3.1136612 9.01621129,3.06393443 9.07486339,3.03078324 C9.13351548,2.99763206 9.19344262,2.99125683 9.25464481,3.01165756 L9.72896175,3.1417122 C9.79526412,3.16211293 9.84499089,3.20163934 9.87814208,3.26029144 C9.91129326,3.31894353 9.91766849,3.38142077 9.89726776,3.44772313 Z M14.9234973,8.428051 L11.3584699,11.9930783 C11.3074681,12.0440801 11.248816,12.0695811 11.1825137,12.0695811 C11.1162113,12.0695811 11.0575592,12.0440801 11.0065574,11.9930783 L10.6240437,11.6105647 C10.5730419,11.5595628 10.547541,11.5009107 10.547541,11.4346084 C10.547541,11.368306 10.5730419,11.3096539 10.6240437,11.2586521 L13.6306011,8.25209472 L10.6240437,5.24553734 C10.5730419,5.19453552 10.547541,5.13588342 10.547541,5.06958106 C10.547541,5.00327869 10.5730419,4.94462659 10.6240437,4.89362477 L11.0065574,4.51111111 C11.0575592,4.46010929 11.1162113,4.43460838 11.1825137,4.43460838 C11.248816,4.43460838 11.3074681,4.46010929 11.3584699,4.51111111 L14.9234973,8.07613843 C14.9744991,8.12714026 15,8.18579235 15,8.25209472 C15,8.31839709 14.9744991,8.37704918 14.9234973,8.428051 Z" id="Shape"></path>
            </g>
        </g>
    </g>
</svg>