<?xml version="1.0" encoding="UTF-8"?>
<svg width="11px" height="12px" viewBox="0 0 11 12" version="1.1" xmlns="http://www.w3.org/2000/svg" xmlns:xlink="http://www.w3.org/1999/xlink">
    <!-- Generator: sketchtool 64 (101010) - https://sketch.com -->
    <title>415FFD30-B86C-4ECA-881F-6EC71EE14AB6</title>
    <desc>Created with sketchtool.</desc>
    <g id="PrefixCTL" stroke="none" stroke-width="1" fill="none" fill-rule="evenodd">
        <g id="FullCTL-AssetSheet" transform="translate(-182.000000, -266.000000)" fill="#4ECDC4">
            <g id="icon/dark-mode" transform="translate(180.000000, 264.000000)">
                <path d="M8.28342626,2.00657608 C6.76483578,2.92663575 5.75,4.59480407 5.75,6.5 C5.75,9.39949494 8.10050506,11.75 11,11.75 C11.6947664,11.75 12.3580121,11.6150434 12.964952,11.3699151 C11.8853979,12.9573519 10.0644607,14 8,14 C4.6862915,14 2,11.3137085 2,8 C2,4.6862915 4.6862915,2 8,2 C8.09500735,2 8.18949894,2.0022082 8.28342626,2.00657608 Z M3,8 C3,10.7614237 5.23857625,13 8,13 C8.64809736,13 9.27497044,12.875934 9.85367839,12.6451078 C6.94938248,12.1067446 4.75,9.56021893 4.75,6.5 C4.75,5.5176001 4.97869482,4.57447097 5.39562415,3.73099416 C3.95886906,4.60938489 3,6.19271451 3,8 Z" id="Combined-Shape-Copy"></path>
            </g>
        </g>
    </g>
</svg>