<?xml version="1.0" encoding="UTF-8"?>
<svg width="14px" height="16px" viewBox="0 0 14 16" version="1.1" xmlns="http://www.w3.org/2000/svg" xmlns:xlink="http://www.w3.org/1999/xlink">
    <!-- Generator: sketchtool 64 (101010) - https://sketch.com -->
    <title>AF5C53AE-C78F-406F-8645-0D2DECC74748</title>
    <desc>Created with sketchtool.</desc>
    <g id="PrefixCTL" stroke="none" stroke-width="1" fill="none" fill-rule="evenodd">
        <g id="FullCTL-AssetSheet" transform="translate(-213.000000, -168.000000)" fill="#4ECDC4">
            <g id="icon/delete" transform="translate(212.000000, 168.000000)">
                <path d="M14.001199,2.49512671 C14.1362916,2.49512671 14.2531969,2.54450893 14.3519185,2.64327485 C14.45064,2.74204078 14.5,2.85899867 14.5,2.99415205 C14.5,3.12930542 14.45064,3.24626331 14.3519185,3.34502924 C14.2531969,3.44379517 14.1362916,3.49317739 14.001199,3.49317739 L13.3153477,3.49317739 L12.146283,15.0331384 C12.1254995,15.3034451 12.01379,15.5321628 11.8111511,15.7192982 C11.6085122,15.9064337 11.3721037,16 11.1019185,16 L4.89808153,16 C4.62789633,16 4.39148782,15.9064337 4.18884892,15.7192982 C3.98621002,15.5321628 3.86930471,15.3034451 3.8381295,15.0331384 L2.68465228,3.49317739 L1.99880096,3.49317739 C1.86370836,3.49317739 1.74680305,3.44379517 1.64808153,3.34502924 C1.54936002,3.24626331 1.5,3.12930542 1.5,2.99415205 C1.5,2.85899867 1.54936002,2.74204078 1.64808153,2.64327485 C1.74680305,2.54450893 1.86370836,2.49512671 1.99880096,2.49512671 L5.5059952,2.49512671 L5.5059952,1.13840156 C5.5059952,0.816112749 5.62030261,0.545810058 5.84892086,0.32748538 C6.07753911,0.109160702 6.34772026,0 6.65947242,0 L9.34052758,0 C9.65227974,0 9.92246089,0.109160702 10.1510791,0.32748538 C10.3796974,0.545810058 10.4940048,0.816112749 10.4940048,1.13840156 L10.4940048,2.49512671 L14.001199,2.49512671 Z M6.50359712,1.13840156 L6.50359712,2.49512671 L9.49640288,2.49512671 L9.49640288,1.13840156 C9.49640288,1.09681591 9.4808155,1.06042901 9.44964029,1.02923977 C9.41846507,0.998050526 9.38209453,0.98245614 9.34052758,0.98245614 L6.65947242,0.98245614 C6.61790547,0.98245614 6.58153493,0.998050526 6.55035971,1.02923977 C6.5191845,1.06042901 6.50359712,1.09681591 6.50359712,1.13840156 Z M11.1642686,14.9395712 L12.3021583,3.49317739 L3.69784173,3.49317739 L4.83573141,14.9395712 C4.83573141,14.9499676 4.8435251,14.9629629 4.85911271,14.9785575 C4.87470032,14.9941521 4.8876898,15.0019493 4.89808153,15.0019493 L11.1019185,15.0019493 C11.1123102,15.0019493 11.1252997,14.9967512 11.1408873,14.9863548 C11.1564749,14.9759584 11.1642686,14.960364 11.1642686,14.9395712 Z" id="î”"></path>
            </g>
        </g>
    </g>
</svg>