<?xml version="1.0" encoding="UTF-8"?>
<svg width="16px" height="16px" viewBox="0 0 16 16" version="1.1" xmlns="http://www.w3.org/2000/svg" xmlns:xlink="http://www.w3.org/1999/xlink">
    <!-- Generator: sketchtool 64 (101010) - https://sketch.com -->
    <title>A3D09444-D742-476D-8B0B-4CC9D93CBBE1</title>
    <desc>Created with sketchtool.</desc>
    <g id="PrefixCTL" stroke="none" stroke-width="1" fill="none" fill-rule="evenodd">
        <g id="FullCTL-AssetSheet" transform="translate(-180.000000, -168.000000)" fill="#4ECDC4">
            <g id="icon/edit" transform="translate(180.000000, 168.000000)">
                <path d="M15.0478163,0.795273188 C15.3596897,1.08635503 15.5935912,1.39042703 15.7495279,1.70749831 C15.9054646,2.0245696 15.9886296,2.34423504 15.9990254,2.66650422 C16.0094212,3.00956496 15.9366518,3.34482383 15.7807151,3.6722909 C15.6247784,3.99975796 15.3960747,4.3194234 15.0945971,4.6312968 C14.9490561,4.7872335 14.3669012,5.36938844 13.3481148,6.37777909 C12.3293283,7.38616975 11.2299911,8.47511136 10.0500701,9.6446366 C8.87014905,10.8141618 7.78640525,11.88751 6.79880615,12.8647133 C5.81120706,13.8419166 5.27063461,14.3772913 5.17707259,14.4708533 C5.14588525,14.5020406 5.11209948,14.5280297 5.07571425,14.5488213 C5.03932902,14.5696128 5.00034543,14.5852063 4.95876231,14.595602 C4.81322139,14.6371852 4.50655048,14.7333447 4.03874038,14.8840835 C3.57093029,15.0348223 3.09013268,15.1881577 2.59633313,15.3440944 C2.10253359,15.5000311 1.65812066,15.642971 1.26308102,15.7729182 C0.868041386,15.9028655 0.665326718,15.9678381 0.654930938,15.9678381 C0.634139379,15.9782339 0.610749225,15.9860306 0.584759775,15.9912285 C0.558770325,15.9964264 0.530182359,15.9990253 0.498995019,15.9990253 C0.43662034,15.9990253 0.374246596,15.9860308 0.311871916,15.9600413 C0.249497237,15.9340519 0.197519117,15.8950683 0.155935997,15.8430894 C0.0831655377,15.7807147 0.0363852297,15.7027475 0.0155936699,15.6091855 C-0.00519788996,15.5156235 -0.00519788996,15.4220629 0.0155936699,15.3285009 C0.0259894498,15.3181051 0.0883631937,15.1231871 0.202716773,14.7437412 C0.317070352,14.3642952 0.449614558,13.9250801 0.600353367,13.4260826 C0.751092176,12.9270852 0.896630911,12.4410898 1.03697394,11.9680818 C1.17731697,11.4950738 1.27347649,11.1546171 1.32545539,10.9467015 C1.34624695,10.9051184 1.3670382,10.8661348 1.38782976,10.8297496 C1.40862132,10.7933644 1.43461038,10.7595786 1.46579772,10.7283912 L6.29981121,5.89437774 C7.51611746,4.67807149 8.64144376,3.55014629 9.67582386,2.5105683 C10.710204,1.47099031 11.2637709,0.920022235 11.3365414,0.857647555 C11.4404992,0.753689756 11.6640051,0.584760866 12.0070659,0.350855818 C12.3501266,0.11695077 12.7711494,0 13.2701468,0 C13.592416,0 13.9016858,0.0675715559 14.1979655,0.202716695 C14.4942452,0.337861834 14.777526,0.53537869 15.0478163,0.795273188 Z M11.1806055,2.44819393 C10.6920038,2.92639981 10.0682664,3.54493943 9.30937445,4.30383137 C8.55048252,5.0627233 7.76821181,5.84759291 6.96253887,6.65846375 C6.15686592,7.46933458 5.38499084,8.24380857 4.64689047,8.98190894 L2.88481458,10.7439848 C3.09273018,10.8271511 3.32403281,10.9467007 3.57872942,11.1026374 C3.83342603,11.2585741 4.09071772,11.4664866 4.35061222,11.7263811 C4.55852782,11.9446925 4.73265452,12.1655995 4.87299755,12.3891088 C5.01334058,12.612618 5.12509354,12.8179316 5.20825978,13.0050557 C5.64488253,12.5684329 6.22963638,11.9888769 6.96253887,11.2663702 C7.69544135,10.5438635 8.46211862,9.7849829 9.26259368,8.98970574 C10.0630687,8.19442858 10.8401416,7.42255349 11.5938357,6.67405734 C12.3475297,5.92556119 12.9686682,5.31221937 13.4572699,4.83401349 C13.4468741,4.75084725 13.3870993,4.5559293 13.2779436,4.2492538 C13.1687879,3.94257829 12.9582765,3.63330848 12.6464031,3.32143508 C12.3345297,3.01995746 12.0434523,2.80684717 11.773162,2.68209781 C11.5028717,2.55734845 11.3053548,2.47938127 11.1806055,2.44819393 Z M2.19869654,11.5860388 C2.08434296,11.9706827 1.92580969,12.4800682 1.72309198,13.1142108 C1.52037428,13.7483534 1.34624757,14.2993214 1.20070666,14.7671315 C1.68930831,14.6111948 2.25586982,14.4240736 2.90040817,14.2057622 C3.54494653,13.9874509 4.03873867,13.8211209 4.38179941,13.7067673 C4.32982051,13.5508306 4.24665551,13.3585116 4.13230194,13.1298044 C4.01794836,12.9010972 3.85161837,12.6775913 3.63330699,12.4592799 C3.34222516,12.1681981 3.06674112,11.9576867 2.80684662,11.8277395 C2.54695212,11.6977922 2.34423746,11.6172261 2.19869654,11.5860388 Z M14.3616982,3.91399157 C14.5696138,3.70607597 14.7255482,3.49816349 14.829506,3.29024789 C14.9334638,3.0823323 14.9854419,2.88481544 14.9854419,2.6976914 C14.9854419,2.51056736 14.9308649,2.31824832 14.8217092,2.1207285 C14.7125535,1.92320868 14.5540202,1.72569183 14.3461046,1.52817201 C14.1797722,1.36183953 14.0056455,1.23709204 13.8237193,1.1539258 C13.6417932,1.07075956 13.4572708,1.02917707 13.2701468,1.02917707 C12.9478776,1.02917707 12.6697947,1.11234206 12.4358896,1.27867454 C12.2019846,1.44500702 12.0746382,1.54376544 12.0538466,1.57495278 L11.9758787,1.65292074 C12.1733985,1.73608698 12.3917066,1.85303775 12.6308095,2.00377656 C12.8699125,2.15451537 13.1142096,2.35463113 13.3637083,2.60412985 C13.6028113,2.84323279 13.7951303,3.08752995 13.9406713,3.33702867 C14.0862122,3.58652739 14.1953662,3.81523112 14.2681367,4.02314671 C14.2889282,4.00235515 14.3071206,3.98156391 14.3227143,3.96077235 C14.3383079,3.93998079 14.3513025,3.92438735 14.3616982,3.91399157 Z" id="îŸ"></path>
            </g>
        </g>
    </g>
</svg>