<?xml version="1.0" encoding="UTF-8"?>
<svg width="11px" height="11px" viewBox="0 0 11 11" version="1.1" xmlns="http://www.w3.org/2000/svg" xmlns:xlink="http://www.w3.org/1999/xlink">
    <title>A3BE408F-635A-456A-B6AD-427B2212B142@1x</title>
    <g id="PeerCtl" stroke="none" stroke-width="1" fill="none" fill-rule="evenodd">
        <g id="PeerCtl-Peering-Lists" transform="translate(-312.000000, -375.000000)" fill="#D1FF27" fill-rule="nonzero">
            <path d="M318.732,375 L323,375 L323,379.268 L321.768,379.268 L321.768,377.097333 L315.784,383.081333 L314.918667,382.216 L320.902667,376.232 L318.732,376.232 L318.732,375 Z M321.768,384.768 L321.768,380.5 L323,380.5 L323,384.768 C323,385.100446 322.877779,385.388888 322.633333,385.633333 C322.388888,385.877779 322.100446,386 321.768,386 L313.232,386 C312.889776,386 312.59889,385.877779 312.359333,385.633333 C312.119777,385.388888 312,385.100446 312,384.768 L312,376.232 C312,375.899554 312.119777,375.611112 312.359333,375.366667 C312.59889,375.122221 312.889776,375 313.232,375 L317.5,375 L317.5,376.232 L313.232,376.232 L313.232,384.768 L321.768,384.768 Z" id="launch"></path>
        </g>
    </g>
</svg>