<?xml version="1.0" encoding="UTF-8"?>
<svg width="16px" height="16px" viewBox="0 0 16 16" version="1.1" xmlns="http://www.w3.org/2000/svg" xmlns:xlink="http://www.w3.org/1999/xlink">
    <!-- Generator: sketchtool 64 (101010) - https://sketch.com -->
    <title>46A7C09E-C9BE-4138-A2DF-AC4F3DE0DEA0</title>
    <desc>Created with sketchtool.</desc>
    <g id="PrefixCTL" stroke="none" stroke-width="1" fill="none" fill-rule="evenodd">
        <g id="FullCTL-AssetSheet" transform="translate(-212.000000, -264.000000)" fill="#4ECDC4">
            <g id="icon/light-mode" transform="translate(212.000000, 264.000000)">
                <path d="M8.5,14 L8.5,16 L7.5,16 L7.5,14 L8.5,14 Z M3.40380592,11.8890873 L4.1109127,12.5961941 L2.69669914,14.0104076 L1.98959236,13.3033009 L3.40380592,11.8890873 Z M12.5961941,11.8890873 L14.0104076,13.3033009 L13.3033009,14.0104076 L11.8890873,12.5961941 L12.5961941,11.8890873 Z M8,3 C10.7614237,3 13,5.23857625 13,8 C13,10.7614237 10.7614237,13 8,13 C5.23857625,13 3,10.7614237 3,8 C3,5.23857625 5.23857625,3 8,3 Z M8,4 C5.790861,4 4,5.790861 4,8 C4,10.209139 5.790861,12 8,12 C10.209139,12 12,10.209139 12,8 C12,5.790861 10.209139,4 8,4 Z M16,7.5 L16,8.5 L14,8.5 L14,7.5 L16,7.5 Z M2,7.5 L2,8.5 L0,8.5 L0,7.5 L2,7.5 Z M13.3033009,1.98959236 L14.0104076,2.69669914 L12.5961941,4.1109127 L11.8890873,3.40380592 L13.3033009,1.98959236 Z M2.69669914,1.98959236 L4.1109127,3.40380592 L3.40380592,4.1109127 L1.98959236,2.69669914 L2.69669914,1.98959236 Z M8.5,0 L8.5,2 L7.5,2 L7.5,0 L8.5,0 Z" id="Combined-Shape"></path>
            </g>
        </g>
    </g>
</svg>