<?xml version="1.0" encoding="UTF-8"?>
<svg width="16px" height="10px" viewBox="0 0 16 10" version="1.1" xmlns="http://www.w3.org/2000/svg" xmlns:xlink="http://www.w3.org/1999/xlink">
    <!-- Generator: sketchtool 64 (101010) - https://sketch.com -->
    <title>B8D7F1DD-B0A9-4F63-9293-D3574B56C07E</title>
    <desc>Created with sketchtool.</desc>
    <g id="PrefixCTL" stroke="none" stroke-width="1" fill="none" fill-rule="evenodd">
        <g id="FullCTL-AssetSheet" transform="translate(-244.000000, -171.000000)" fill="#4ECDC4">
            <g id="icon/list" transform="translate(244.000000, 168.000000)">
                <path d="M1.5,7 C1.63541734,7 1.75260367,7.04947867 1.8515625,7.1484375 C1.95052133,7.24739633 2,7.36458266 2,7.5 L2,8.5 C2,8.63541734 1.95052133,8.75260367 1.8515625,8.8515625 C1.75260367,8.95052133 1.63541734,9 1.5,9 L0.5,9 C0.364582656,9 0.247396328,8.95052133 0.1484375,8.8515625 C0.0494786719,8.75260367 0,8.63541734 0,8.5 L0,7.5 C0,7.36458266 0.0494786719,7.24739633 0.1484375,7.1484375 C0.247396328,7.04947867 0.364582656,7 0.5,7 L1.5,7 Z M15.5,7.5 C15.6354173,7.5 15.7526037,7.54947867 15.8515625,7.6484375 C15.9505213,7.74739633 16,7.86458266 16,8 C16,8.13541734 15.9505213,8.25260367 15.8515625,8.3515625 C15.7526037,8.45052133 15.6354173,8.5 15.5,8.5 L5,8.5 C4.86458266,8.5 4.74739633,8.45052133 4.6484375,8.3515625 C4.54947867,8.25260367 4.5,8.13541734 4.5,8 C4.5,7.86458266 4.54947867,7.74739633 4.6484375,7.6484375 C4.74739633,7.54947867 4.86458266,7.5 5,7.5 L15.5,7.5 Z M1.5,11 C1.63541734,11 1.75260367,11.0494787 1.8515625,11.1484375 C1.95052133,11.2473963 2,11.3645827 2,11.5 L2,12.5 C2,12.6354173 1.95052133,12.7526037 1.8515625,12.8515625 C1.75260367,12.9505213 1.63541734,13 1.5,13 L0.5,13 C0.364582656,13 0.247396328,12.9505213 0.1484375,12.8515625 C0.0494786719,12.7526037 0,12.6354173 0,12.5 L0,11.5 C0,11.3645827 0.0494786719,11.2473963 0.1484375,11.1484375 C0.247396328,11.0494787 0.364582656,11 0.5,11 L1.5,11 Z M15.5,11.5 C15.6354173,11.5 15.7526037,11.5494787 15.8515625,11.6484375 C15.9505213,11.7473963 16,11.8645827 16,12 C16,12.1354173 15.9505213,12.2526037 15.8515625,12.3515625 C15.7526037,12.4505213 15.6354173,12.5 15.5,12.5 L5,12.5 C4.86458266,12.5 4.74739633,12.4505213 4.6484375,12.3515625 C4.54947867,12.2526037 4.5,12.1354173 4.5,12 C4.5,11.8645827 4.54947867,11.7473963 4.6484375,11.6484375 C4.74739633,11.5494787 4.86458266,11.5 5,11.5 L15.5,11.5 Z M1.5,3 C1.63541734,3 1.75260367,3.04947867 1.8515625,3.1484375 C1.95052133,3.24739633 2,3.36458266 2,3.5 L2,4.5 C2,4.63541734 1.95052133,4.75260367 1.8515625,4.8515625 C1.75260367,4.95052133 1.63541734,5 1.5,5 L0.5,5 C0.364582656,5 0.247396328,4.95052133 0.1484375,4.8515625 C0.0494786719,4.75260367 0,4.63541734 0,4.5 L0,3.5 C0,3.36458266 0.0494786719,3.24739633 0.1484375,3.1484375 C0.247396328,3.04947867 0.364582656,3 0.5,3 L1.5,3 Z M5,4.5 C4.86458266,4.5 4.74739633,4.45052133 4.6484375,4.3515625 C4.54947867,4.25260367 4.5,4.13541734 4.5,4 C4.5,3.86458266 4.54947867,3.74739633 4.6484375,3.6484375 C4.74739633,3.54947867 4.86458266,3.5 5,3.5 L15.5,3.5 C15.6354173,3.5 15.7526037,3.54947867 15.8515625,3.6484375 C15.9505213,3.74739633 16,3.86458266 16,4 C16,4.13541734 15.9505213,4.25260367 15.8515625,4.3515625 C15.7526037,4.45052133 15.6354173,4.5 15.5,4.5 L5,4.5 Z" id="î§"></path>
            </g>
        </g>
    </g>
</svg>