<?xml version="1.0" encoding="UTF-8"?>
<svg width="16px" height="16px" viewBox="0 0 16 16" version="1.1" xmlns="http://www.w3.org/2000/svg" xmlns:xlink="http://www.w3.org/1999/xlink">
    <title>A2984748-3C78-4913-AF38-A0CF826095DF</title>
    <g id="PrefixCTL" stroke="none" stroke-width="1" fill="none" fill-rule="evenodd">
        <g id="FullCTL-AssetSheet" transform="translate(-404.000000, -216.000000)" fill="#BCBEC0">
            <g id="icon/location" transform="translate(404.000000, 216.000000)">
                <path d="M8,0 C11.1488095,0 13.75,2.57082452 13.75,5.68287526 C13.75,9.30232558 8.51339286,15.3911205 8.30803571,15.627907 L8,16 L7.69196429,15.627907 C7.68391106,15.6172947 7.66812043,15.5977868 7.64521164,15.5698791 L7.55574998,15.4614521 C6.69739146,14.422477 2.25,9.01844713 2.25,5.68287526 C2.25,2.53699789 4.85119048,0 8,0 Z M8,0.778012685 C5.26190476,0.778012685 3.07142857,2.97674419 3.07142857,5.64904863 C3.07142857,8.49048626 6.87053571,13.3276956 8,14.7145877 C9.12946429,13.3276956 12.9285714,8.5243129 12.9285714,5.64904863 C12.9285714,2.97674419 10.7380952,0.778012685 8,0.778012685 Z M8,3.5179704 C9.19791667,3.5179704 10.1904762,4.49894292 10.1904762,5.68287526 C10.1904762,6.86680761 9.19791667,7.84778013 8,7.84778013 C6.80208333,7.84778013 5.80952381,6.86680761 5.80952381,5.68287526 C5.80952381,4.49894292 6.80208333,3.5179704 8,3.5179704 Z M8,4.32980973 C7.24702381,4.32980973 6.63095238,4.93868922 6.63095238,5.68287526 C6.63095238,6.42706131 7.24702381,7.0359408 8,7.0359408 C8.75297619,7.0359408 9.36904762,6.42706131 9.36904762,5.68287526 C9.36904762,4.93868922 8.75297619,4.32980973 8,4.32980973 Z" id="Combined-Shape"></path>
            </g>
        </g>
    </g>
</svg>