<?xml version="1.0" encoding="UTF-8"?>
<svg width="16px" height="16px" viewBox="0 0 16 16" version="1.1" xmlns="http://www.w3.org/2000/svg" xmlns:xlink="http://www.w3.org/1999/xlink">
    <!-- Generator: sketchtool 64 (101010) - https://sketch.com -->
    <title>E5A1E6B2-E6F4-4A9F-99FC-2FEBC04A7FC0</title>
    <desc>Created with sketchtool.</desc>
    <g id="PrefixCTL" stroke="none" stroke-width="1" fill="none" fill-rule="evenodd">
        <g id="FullCTL-AssetSheet" transform="translate(-308.000000, -216.000000)" fill="#FFFFFF">
            <g id="icon/logout" transform="translate(308.000000, 216.000000)">
                <path d="M1.828125,8.5 L3.671875,10.328125 C3.76562547,10.4322922 3.8125,10.5520827 3.8125,10.6875 C3.8125,10.8229173 3.76562547,10.9427078 3.671875,11.046875 C3.61979141,11.0885419 3.56250031,11.1223957 3.5,11.1484375 C3.43749969,11.1744793 3.37500031,11.1875 3.3125,11.1875 C3.24999969,11.1875 3.18750031,11.1744793 3.125,11.1484375 C3.06249969,11.1223957 3.00520859,11.0885419 2.953125,11.046875 L0,8.015625 L2.953125,4.984375 C3.05729219,4.88020781 3.17708266,4.828125 3.3125,4.828125 C3.44791734,4.828125 3.56770781,4.88020781 3.671875,4.984375 C3.76562547,5.07812547 3.8125,5.1953118 3.8125,5.3359375 C3.8125,5.4765632 3.76562547,5.59374953 3.671875,5.6875 L1.859375,7.5 L10.484375,7.5 C10.6302091,7.5 10.7499995,7.54687453 10.84375,7.640625 C10.9375005,7.73437547 10.984375,7.85416594 10.984375,8 C10.984375,8.13541734 10.9375005,8.25260367 10.84375,8.3515625 C10.7499995,8.45052133 10.6302091,8.5 10.484375,8.5 L1.828125,8.5 Z M15,0 C15.2708347,0 15.5052073,0.0963532031 15.703125,0.2890625 C15.9010427,0.481771797 16,0.718748594 16,1 L16,15 C16,15.2812514 15.9010427,15.5182282 15.703125,15.7109375 C15.5052073,15.9036468 15.2708347,16 15,16 L6.5,16 C6.21874859,16 5.9817718,15.9036468 5.7890625,15.7109375 C5.5963532,15.5182282 5.5,15.2812514 5.5,15 L5.5,10.484375 L6.5,10.484375 L6.5,14.390625 C6.5,14.5572925 6.55989523,14.7005202 6.6796875,14.8203125 C6.79947977,14.9401048 6.9427075,15 7.109375,15 L14.390625,15 C14.5572925,15 14.6979161,14.9401048 14.8125,14.8203125 C14.9270839,14.7005202 14.984375,14.5572925 14.984375,14.390625 L14.96875,1.609375 C14.96875,1.4427075 14.9114589,1.29947977 14.796875,1.1796875 C14.6822911,1.05989523 14.5416675,1 14.375,1 L7.109375,1 C6.9427075,1 6.79947977,1.05989523 6.6796875,1.1796875 C6.55989523,1.29947977 6.5,1.4427075 6.5,1.609375 L6.5,5.5 L5.5,5.5 L5.5,1 C5.5,0.718748594 5.5963532,0.481771797 5.7890625,0.2890625 C5.9817718,0.0963532031 6.21874859,0 6.5,0 L15,0 Z" id="î¥"></path>
            </g>
        </g>
    </g>
</svg>