<?xml version="1.0" encoding="UTF-8"?>
<svg width="14px" height="13px" viewBox="0 0 14 13" version="1.1" xmlns="http://www.w3.org/2000/svg" xmlns:xlink="http://www.w3.org/1999/xlink">
    <!-- Generator: sketchtool 64 (101010) - https://sketch.com -->
    <title>F607442D-675E-45EB-944A-D51D25181A03</title>
    <desc>Created with sketchtool.</desc>
    <g id="PrefixCTL" stroke="none" stroke-width="1" fill="none" fill-rule="evenodd">
        <g id="FullCTL-AssetSheet" transform="translate(-213.000000, -217.000000)" fill="#FFFFFF">
            <g id="icon/org" transform="translate(212.000000, 216.000000)">
                <path d="M14.125,3.1440501 C14.3619804,3.1440501 14.5670564,3.22999218 14.7402344,3.40187891 C14.9134123,3.57376565 15,3.77731267 15,4.0125261 L15,13.131524 C15,13.3667374 14.9134123,13.5702845 14.7402344,13.7421712 C14.5670564,13.9140579 14.3619804,14 14.125,14 L1.875,14 C1.63801965,14 1.43294357,13.9140579 1.25976562,13.7421712 C1.08658768,13.5702845 1,13.3667374 1,13.131524 L1,4.0125261 C1,3.77731267 1.08658768,3.57376565 1.25976562,3.40187891 C1.43294357,3.22999218 1.63801965,3.1440501 1.875,3.1440501 L5.375,3.1440501 L5.375,2.30271399 C5.375,1.94989385 5.50260289,1.64457331 5.7578125,1.38674322 C6.01302211,1.12891312 6.32291484,1 6.6875,1 L9.3125,1 C9.67708516,1 9.98697789,1.12891312 10.2421875,1.38674322 C10.4973971,1.64457331 10.625,1.94989385 10.625,2.30271399 L10.625,3.1440501 L14.125,3.1440501 Z M6.25,2.30271399 L6.25,3.1440501 L9.75,3.1440501 L9.75,2.30271399 C9.75,2.18510728 9.70898479,2.08333376 9.62695312,1.9973904 C9.54492146,1.91144703 9.4401048,1.86847599 9.3125,1.86847599 L6.6875,1.86847599 C6.56900982,1.86847599 6.46647179,1.91144703 6.37988281,1.9973904 C6.29329384,2.08333376 6.25,2.18510728 6.25,2.30271399 Z M1.875,4.0125261 L1.875,7.065762 L6.6875,7.065762 L6.6875,6.61795407 C6.6875,6.38274065 6.77180905,6.17919362 6.94042969,6.00730689 C7.10905032,5.83542016 7.31640502,5.74947808 7.5625,5.74947808 L8.4375,5.74947808 C8.67448035,5.74947808 8.87955643,5.83542016 9.05273438,6.00730689 C9.22591232,6.17919362 9.3125,6.38274065 9.3125,6.61795407 L9.3125,7.065762 L14.125,7.065762 L14.125,4.0125261 L1.875,4.0125261 Z M8.4375,8.80271399 L8.4375,6.61795407 L7.5625,6.61795407 L7.5625,8.80271399 L8.4375,8.80271399 Z M1.875,13.131524 L14.125,13.131524 L14.125,7.934238 L9.3125,7.934238 L9.3125,8.80271399 C9.3125,9.04697408 9.22591232,9.25278274 9.05273438,9.42014614 C8.87955643,9.58750954 8.67448035,9.67118998 8.4375,9.67118998 L7.5625,9.67118998 C7.31640502,9.67118998 7.10905032,9.58750954 6.94042969,9.42014614 C6.77180905,9.25278274 6.6875,9.04697408 6.6875,8.80271399 L6.6875,7.934238 L1.875,7.934238 L1.875,13.131524 Z" id="icon-org"></path>
            </g>
        </g>
    </g>
</svg>