<?xml version="1.0" encoding="UTF-8"?>
<svg width="16px" height="16px" viewBox="0 0 16 16" version="1.1" xmlns="http://www.w3.org/2000/svg" xmlns:xlink="http://www.w3.org/1999/xlink">
    <title>02FEEB0A-EBB4-47F0-A2C8-F910EEBB96F3</title>
    <g id="PrefixCTL" stroke="none" stroke-width="1" fill="none" fill-rule="evenodd">
        <g id="FullCTL-AssetSheet" transform="translate(-372.000000, -216.000000)" fill="#BCBEC0">
            <g id="icon/refresh" transform="translate(372.000000, 216.000000)">
                <path d="M8.02143688,1 C11.4032575,1 14.2560452,3.43077374 14.9046579,6.62229347 L15.7373577,6.62227106 C15.8318182,6.62193657 15.9191301,6.67237462 15.9658107,6.75424469 C16.0124912,6.83611475 16.0112955,6.9367103 15.962682,7.01745455 L14.6292473,9.25045455 C14.5821651,9.32990634 14.4964867,9.37865321 14.403923,9.37865321 C14.3113593,9.37865321 14.2256809,9.32990634 14.1785987,9.25045455 L12.845164,7.01745455 C12.7973618,6.93649576 12.7966614,6.83622674 12.8433282,6.75461215 C12.8899949,6.67299756 12.9768954,6.62251277 13.0711266,6.62227106 L13.5956269,6.62208322 C12.9695035,4.13768333 10.694998,2.27272727 8.02143688,2.27272727 C4.87218504,2.27272727 2.27662489,4.86036302 2.27662489,8 C2.27662489,11.139637 4.87218504,13.7272727 8.02134893,13.7272727 C9.47872848,13.7270725 10.8789753,13.1749815 11.9409493,12.1871 L12.0836409,12.0496987 L12.9862475,12.9497559 C11.669397,14.262285 9.88361921,14.9997442 8.02143688,15 C4.16712458,15 1,11.8425448 1,8 C1,4.15745516 4.16712458,1 8.02143688,1 Z" id="Combined-Shape"></path>
            </g>
        </g>
    </g>
</svg>