<?xml version="1.0" encoding="UTF-8"?>
<svg width="16px" height="16px" viewBox="0 0 16 16" version="1.1" xmlns="http://www.w3.org/2000/svg" xmlns:xlink="http://www.w3.org/1999/xlink">
    <title>49582025-4532-4A73-BA4C-131B4490F961</title>
    <g id="PrefixCTL" stroke="none" stroke-width="1" fill="none" fill-rule="evenodd">
        <g id="FullCTL-AssetSheet" transform="translate(-340.000000, -216.000000)" fill="#BCBEC0">
            <g id="icon/report" transform="translate(340.000000, 216.000000)">
                <path d="M9.3,1 C9.3875,1 9.475,1.035 9.545,1.105 L9.545,1.105 L13.36,4.92 C13.43,4.99 13.4825,5.0425 13.5,5.1475 L13.5,5.1475 L13.5,14.3 C13.5,14.685 13.185,15 12.8,15 L12.8,15 L3.7,15 C3.315,15 3,14.685 3,14.3 L3,14.3 L3,1.7 C3,1.315 3.315,1 3.7,1 L3.7,1 Z M8.95,1.7 L3.7,1.7 L3.7,14.3 L12.8,14.3 L12.8,5.55 L9.3,5.55 C9.1075,5.55 8.95,5.3925 8.95,5.2 L8.95,5.2 L8.95,1.7 Z M10.5,11 C10.7761424,11 11,11.2238576 11,11.5 C11,11.7761424 10.7761424,12 10.5,12 L5.5,12 C5.22385763,12 5,11.7761424 5,11.5 C5,11.2238576 5.22385763,11 5.5,11 L10.5,11 Z M10.5,9 C10.7761424,9 11,9.22385763 11,9.5 C11,9.77614237 10.7761424,10 10.5,10 L5.5,10 C5.22385763,10 5,9.77614237 5,9.5 C5,9.22385763 5.22385763,9 5.5,9 L10.5,9 Z M10.5,7 C10.7761424,7 11,7.22385763 11,7.5 C11,7.77614237 10.7761424,8 10.5,8 L5.5,8 C5.22385763,8 5,7.77614237 5,7.5 C5,7.22385763 5.22385763,7 5.5,7 L10.5,7 Z M9.65,2.19 L9.65,4.85 L12.31,4.85 L9.65,2.19 Z" id="Combined-Shape"></path>
            </g>
        </g>
    </g>
</svg>