<?xml version="1.0" encoding="UTF-8"?>
<svg width="16px" height="16px" viewBox="0 0 16 16" version="1.1" xmlns="http://www.w3.org/2000/svg" xmlns:xlink="http://www.w3.org/1999/xlink">
    <!-- Generator: sketchtool 64 (101010) - https://sketch.com -->
    <title>A2F98B45-FF7D-4B2B-BBF3-D872FA6BE585</title>
    <desc>Created with sketchtool.</desc>
    <g id="PrefixCTL" stroke="none" stroke-width="1" fill="none" fill-rule="evenodd">
        <g id="FullCTL-AssetSheet" transform="translate(-276.000000, -216.000000)" fill="#FFFFFF">
            <g id="icon/settings" transform="translate(276.000000, 216.000000)">
                <path d="M15,6.484375 C15.2395845,6.52604188 15.4661448,6.6432282 15.6796875,6.8359375 C15.8932302,7.0286468 16,7.26562359 16,7.546875 L16,8.546875 C16,8.81770969 15.8932302,9.0364575 15.6796875,9.203125 C15.4661448,9.3697925 15.2395845,9.48437469 15,9.546875 L13.703125,9.859375 C13.6510414,10.0156258 13.5963545,10.1640618 13.5390625,10.3046875 C13.4817705,10.4453132 13.416667,10.5833327 13.34375,10.71875 L14.03125,11.875 C14.1666673,12.0833344 14.2499998,12.3229153 14.28125,12.59375 C14.3125002,12.8645847 14.2291677,13.0989573 14.03125,13.296875 L13.328125,14 C13.1302073,14.1979177 12.8906264,14.2890626 12.609375,14.2734375 C12.3281236,14.2578124 12.0833344,14.1822923 11.875,14.046875 L10.75,13.328125 C10.6041659,13.401042 10.4583341,13.4687497 10.3125,13.53125 C10.1666659,13.5937503 10.0104175,13.6510414 9.84375,13.703125 L9.5625,15 C9.52083312,15.2395845 9.4036468,15.4661448 9.2109375,15.6796875 C9.0182282,15.8932302 8.78125141,16 8.5,16 L7.5,16 C7.22916531,16 7.0104175,15.8932302 6.84375,15.6796875 C6.6770825,15.4661448 6.56250031,15.2395845 6.5,15 L6.1875,13.71875 C6.0208325,13.6666664 5.8541675,13.6067712 5.6875,13.5390625 C5.5208325,13.4713538 5.35937578,13.3958338 5.203125,13.3125 L4.046875,14.046875 C3.84895734,14.1822923 3.60677227,14.2578124 3.3203125,14.2734375 C3.03385273,14.2890626 2.79687594,14.1979177 2.609375,14 L1.890625,13.296875 C1.70312406,13.0989573 1.62499984,12.8645847 1.65625,12.59375 C1.68750016,12.3229153 1.76562437,12.0833344 1.890625,11.875 L2.625,10.65625 C2.56249969,10.5312494 2.50260445,10.4036465 2.4453125,10.2734375 C2.38802055,10.1432285 2.33854188,10.0052091 2.296875,9.859375 L1,9.546875 C0.760415469,9.48437469 0.533855234,9.3697925 0.3203125,9.203125 C0.106769766,9.0364575 0,8.81770969 0,8.546875 L0,7.546875 C0,7.26562359 0.106769766,7.0286468 0.3203125,6.8359375 C0.533855234,6.6432282 0.760415469,6.52604188 1,6.484375 L2.28125,6.203125 C2.32291688,6.05729094 2.37499969,5.91145906 2.4375,5.765625 C2.5,5.61979094 2.56249969,5.47916734 2.625,5.34375 L1.890625,4.125 C1.76562437,3.91666562 1.68750016,3.67708469 1.65625,3.40625 C1.62499984,3.13541531 1.70312406,2.90104266 1.890625,2.703125 L2.609375,2 C2.79687594,1.80208234 3.03385273,1.71093742 3.3203125,1.7265625 C3.60677227,1.74218758 3.84895734,1.81770766 4.046875,1.953125 L5.203125,2.6875 C5.35937578,2.60416625 5.51822836,2.52864617 5.6796875,2.4609375 C5.84114664,2.39322883 6.0052075,2.33333359 6.171875,2.28125 L6.5,1 C6.55208359,0.760415469 6.6614575,0.533855234 6.828125,0.3203125 C6.9947925,0.106769766 7.21874859,0 7.5,0 L8.5,0 C8.78125141,0 9.01562406,0.106769766 9.203125,0.3203125 C9.39062594,0.533855234 9.51041641,0.755207188 9.5625,0.984375 L9.84375,2.296875 C10,2.34895859 10.1536451,2.40624969 10.3046875,2.46875 C10.4557299,2.53125031 10.6041659,2.59895797 10.75,2.671875 L11.875,1.953125 C12.0833344,1.81770766 12.3281236,1.74218758 12.609375,1.7265625 C12.8906264,1.71093742 13.1302073,1.80208234 13.328125,2 L14.03125,2.703125 C14.2291677,2.90104266 14.3125002,3.13541531 14.28125,3.40625 C14.2499998,3.67708469 14.1666673,3.91666562 14.03125,4.125 L13.34375,5.28125 C13.416667,5.42708406 13.4869788,5.57552008 13.5546875,5.7265625 C13.6223962,5.87760492 13.6770831,6.0364575 13.71875,6.203125 L15,6.484375 Z M15,8.46875 L15.015625,7.578125 C15.0052083,7.56770828 14.9791669,7.5494793 14.9375,7.5234375 C14.8958331,7.4973957 14.8489586,7.47916672 14.796875,7.46875 L12.9375,7.046875 L12.765625,6.5 C12.7343748,6.37499937 12.6927086,6.25000063 12.640625,6.125 C12.5885414,6 12.526042,5.86979234 12.453125,5.734375 L12.203125,5.234375 L13.1875,3.59375 C13.2187502,3.55208312 13.2421874,3.51041688 13.2578125,3.46875 C13.2734376,3.42708312 13.28125,3.39583344 13.28125,3.375 L12.625,2.734375 C12.5937498,2.734375 12.559896,2.73958328 12.5234375,2.75 C12.486979,2.76041672 12.4531252,2.77604156 12.421875,2.796875 L10.8125,3.828125 L10.296875,3.5625 C10.1718744,3.5 10.0468756,3.44010445 9.921875,3.3828125 C9.79687437,3.32552055 9.66666734,3.28125016 9.53125,3.25 L8.984375,3.0625 L8.578125,1.171875 C8.56770828,1.13020812 8.55208344,1.09114602 8.53125,1.0546875 L8.5,1 L7.578125,1 C7.55729156,1.02083344 7.53645844,1.05208312 7.515625,1.09375 C7.49479156,1.13541688 7.47916672,1.18749969 7.46875,1.25 L7.015625,3.0625 L6.484375,3.234375 C6.34895766,3.27604188 6.21354234,3.32552055 6.078125,3.3828125 C5.94270766,3.44010445 5.80729234,3.50520797 5.671875,3.578125 L5.15625,3.84375 L3.484375,2.78125 L3.40625,2.7421875 C3.37499984,2.72656242 3.34375016,2.71354172 3.3125,2.703125 L2.65625,3.359375 C2.65625,3.39062516 2.66406242,3.42708312 2.6796875,3.46875 C2.69531258,3.51041688 2.71874984,3.55729141 2.75,3.609375 L3.765625,5.296875 L3.515625,5.78125 C3.45312469,5.91666734 3.39843773,6.04166609 3.3515625,6.15625 C3.30468727,6.27083391 3.26562516,6.38541609 3.234375,6.5 L3.0625,7.046875 L1.171875,7.46875 C1.14062484,7.47916672 1.10677102,7.49479156 1.0703125,7.515625 C1.03385398,7.53645844 1.01041672,7.546875 1,7.546875 L1,8.46875 C1.02083344,8.48958344 1.05208312,8.50781242 1.09375,8.5234375 C1.13541688,8.53906258 1.18749969,8.55208328 1.25,8.5625 L3.078125,9.03125 L3.25,9.5625 C3.28125016,9.66666719 3.32031227,9.77343695 3.3671875,9.8828125 C3.41406273,9.99218805 3.46874969,10.1041661 3.53125,10.21875 L3.765625,10.703125 L2.75,12.40625 C2.71874984,12.4479169 2.69531258,12.4895831 2.6796875,12.53125 C2.66406242,12.5729169 2.65625,12.6093748 2.65625,12.640625 L3.3125,13.28125 C3.34375016,13.28125 3.37760398,13.2734376 3.4140625,13.2578125 C3.45052102,13.2421874 3.48437484,13.2239584 3.515625,13.203125 L5.15625,12.15625 L5.671875,12.421875 C5.80729234,12.494792 5.94270766,12.5598955 6.078125,12.6171875 C6.21354234,12.6744795 6.34895766,12.7239581 6.484375,12.765625 L7.015625,12.9375 L7.484375,14.78125 C7.49479172,14.8333336 7.50781242,14.877604 7.5234375,14.9140625 C7.53906258,14.950521 7.55729156,14.9791666 7.578125,15 L8.484375,15 C8.49479172,14.9895833 8.5130207,14.9635419 8.5390625,14.921875 C8.5651043,14.8802081 8.58333328,14.8385419 8.59375,14.796875 L9,12.9375 L9.546875,12.75 C9.67187563,12.7083331 9.79687437,12.6614586 9.921875,12.609375 C10.0468756,12.5572914 10.1718744,12.5 10.296875,12.4375 L10.8125,12.171875 L12.453125,13.21875 L12.53125,13.2578125 C12.5625002,13.2734376 12.5937498,13.2864583 12.625,13.296875 L13.28125,12.640625 C13.28125,12.6093748 13.2734376,12.5729169 13.2578125,12.53125 C13.2421874,12.4895831 13.2187502,12.4427086 13.1875,12.390625 L12.203125,10.765625 L12.453125,10.265625 C12.5156253,10.1510411 12.5703123,10.0338548 12.6171875,9.9140625 C12.6640627,9.79427023 12.7083331,9.67187563 12.75,9.546875 L12.921875,9.03125 L14.78125,8.5625 C14.8333336,8.55208328 14.877604,8.53906258 14.9140625,8.5234375 C14.950521,8.50781242 14.9791666,8.48958344 15,8.46875 Z M8,5 C8.8333375,5 9.54426789,5.29166375 10.1328125,5.875 C10.7213571,6.45833625 11.015625,7.1666625 11.015625,8 C11.015625,8.8333375 10.7213571,9.54166375 10.1328125,10.125 C9.54426789,10.7083363 8.8333375,11 8,11 C7.17707922,11 6.47135711,10.7083363 5.8828125,10.125 C5.29426789,9.54166375 5,8.8333375 5,8 C5,7.1666625 5.29426789,6.45833625 5.8828125,5.875 C6.47135711,5.29166375 7.17707922,5 8,5 Z M8,10 C8.55208609,10 9.02343555,9.80468945 9.4140625,9.4140625 C9.80468945,9.02343555 10,8.55208609 10,8 C10,7.44791391 9.80468945,6.97656445 9.4140625,6.5859375 C9.02343555,6.19531055 8.55208609,6 8,6 C7.44791391,6 6.97656445,6.19531055 6.5859375,6.5859375 C6.19531055,6.97656445 6,7.44791391 6,8 C6,8.55208609 6.19531055,9.02343555 6.5859375,9.4140625 C6.97656445,9.80468945 7.44791391,10 8,10 Z" id=""></path>
            </g>
        </g>
    </g>
</svg>