<?xml version="1.0" encoding="UTF-8"?>
<svg width="16px" height="16px" viewBox="0 0 16 16" version="1.1" xmlns="http://www.w3.org/2000/svg" xmlns:xlink="http://www.w3.org/1999/xlink">
    <title>495464AF-605F-4AD1-811E-EE01FEDF818A</title>
    <g id="PeerCtl" stroke="none" stroke-width="1" fill="none" fill-rule="evenodd">
        <g id="PeerCtl-Peering-Lists" transform="translate(-1214.000000, -105.000000)" fill="#D1FF27">
            <g id="Group-16" transform="translate(1118.000000, 95.000000)">
                <g id="icon/view-copy" transform="translate(96.000000, 10.000000)">
                    <path d="M8,3 C10.1719208,3 12.1147351,4.17140733 13.5233775,5.35499558 L13.9110479,5.69249373 C13.9731493,5.74846487 14.0339735,5.80421328 14.0934876,5.8596138 L14.4095013,6.16210261 C14.5102358,6.2612214 14.6062979,6.35836684 14.6974803,6.45275132 L14.9561809,6.72683425 L15.1843596,6.97962571 L15.4666784,7.30855393 L15.6733275,7.56299432 L15.8381874,7.77821429 L16,8 L15.8001094,8.27300233 L15.6131113,8.5125582 L15.3807726,8.7936 L15.1843596,9.02037429 L14.9561809,9.27316575 L14.6281818,9.61854241 L14.254921,9.98795714 C12.8326262,11.3500429 10.5776643,13 8,13 C5.82807919,13 3.88526488,11.8285927 2.4766225,10.6450044 L2.08895207,10.3075063 C2.02685073,10.2515351 1.96602653,10.1957867 1.90651244,10.1403862 L1.59049873,9.83789739 C1.48976419,9.7387786 1.3937021,9.64163316 1.30251974,9.54724868 L1.0438191,9.27316575 L0.815640425,9.02037429 L0.533321551,8.69144607 L0.326672515,8.43700568 L0.161812564,8.22178571 L0,8 L0.199890559,7.72699767 L0.386888678,7.4874418 L0.619227353,7.2064 L0.815640425,6.97962571 L1.0438191,6.72683425 L1.37181822,6.38145759 L1.74507897,6.01204286 C3.16737384,4.64995714 5.42233574,3 8,3 Z M8,4 C6.20121001,4 4.3788539,4.95142235 2.69741029,6.48988805 L2.44627115,6.72501518 L2.02973876,7.13915681 L1.78613948,7.39687936 L1.5715351,7.63431895 L1.38995514,7.84356456 L1.259,8 L1.55796081,8.35032918 L1.77103812,8.58676026 L2.02172119,8.85244707 L2.28197778,9.11550088 L2.58787063,9.40843606 C4.31349048,11.0147821 6.17107894,12 8,12 C9.79878999,12 11.6211461,11.0485776 13.3025897,9.51011195 L13.5537289,9.27498482 L13.9702612,8.86084319 L14.2138605,8.60312064 L14.4284649,8.36568105 L14.6100449,8.15643544 L14.74,7.999 L14.4420392,7.64967082 L14.2289619,7.41323974 L13.9782788,7.14755293 L13.7180222,6.88449912 L13.4121294,6.59156394 C11.6865095,4.98521792 9.82892106,4 8,4 Z M8,5 C9.65685425,5 11,6.34314575 11,8 C11,9.65685425 9.65685425,11 8,11 C6.34314575,11 5,9.65685425 5,8 C5,6.34314575 6.34314575,5 8,5 Z M8,6 C6.8954305,6 6,6.8954305 6,8 C6,9.1045695 6.8954305,10 8,10 C9.1045695,10 10,9.1045695 10,8 C10,6.8954305 9.1045695,6 8,6 Z" id="Combined-Shape"></path>
                </g>
            </g>
        </g>
    </g>
</svg>