<?xml version="1.0" encoding="UTF-8"?>
<svg width="1072px" height="359px" viewBox="0 0 1072 359" version="1.1" xmlns="http://www.w3.org/2000/svg" xmlns:xlink="http://www.w3.org/1999/xlink">
    <title>aaaCtl-Lockup-LightBG</title>
    <g id="aaaCtl-Lockup-LightBG" stroke="none" stroke-width="1" fill="none" fill-rule="evenodd">
        <g id="Group-6" transform="translate(0.760000, 25.000000)">
            <path d="M839.6076,233.0972 L852.3356,233.0972 L852.3356,245.8252 C796.0996,302.0612 704.9236,302.0612 648.6876,245.8252 C592.4556,189.5892 592.4516,98.4132 648.6876,42.1772 C704.9236,-14.0588 796.0996,-14.0588 852.3356,42.1772 L839.6076,54.9052 C790.4796,5.7772 710.5436,5.7772 661.4156,54.9052 C612.2876,104.0332 612.2916,183.9692 661.4156,233.0972 C710.5436,282.2252 790.4796,282.2252 839.6076,233.0972" id="Fill-18" fill="#D1FF27"></path>
            <path d="M750.5128,54.044 C727.4648,54.044 704.4168,62.816 686.8728,80.364 C651.7808,115.452 651.7808,172.552 686.8728,207.64 L699.6008,194.912 C671.4848,166.796 671.4848,121.208 699.6008,93.092 C713.6608,79.032 732.0848,72 750.5128,72 L750.5128,54.044 Z M826.8808,67.636 L826.8808,80.364 L826.8808,105.816 L801.4248,105.816 L788.6968,105.816 C767.6408,84.764 733.3848,84.764 712.3288,105.816 C691.2728,126.872 691.2728,161.132 712.3288,182.184 C733.3848,203.24 767.6408,203.24 788.6968,182.184 L826.8808,220.368 C784.7008,262.548 716.3208,262.544 674.1448,220.368 C631.9688,178.192 631.9688,109.812 674.1448,67.636 C716.3208,25.456 784.7048,25.456 826.8808,67.636 L826.8808,67.636 Z M1011.7328,268.924 L1071.2448,268.924 L1071.2448,1.13686838e-13 L1011.7328,1.13686838e-13 L1011.7328,268.924 Z M936.9248,59.068 L986.2568,59.068 L986.2568,105.816 L936.9248,105.816 L936.9248,199.624 C936.9248,213.328 942.7968,219.984 956.1128,219.984 C967.0728,219.984 976.8608,217.244 985.4768,212.544 L985.4768,260.312 C972.9448,267.752 958.4608,272.448 938.4928,272.448 C902.0808,272.448 877.4128,257.96 877.4128,209.412 L877.4128,105.816 L852.3568,105.816 L852.3568,59.068 L877.4128,59.068 L877.4128,1.13686838e-13 L936.9248,1.13686838e-13 L936.9248,59.068 Z" id="Fill-19" fill="#3C4650"></path>
            <path d="M544.884,191.9704 C544.884,223.4584 514.936,245.7264 478.456,245.7264 C451.58,245.7264 428.54,231.1384 428.54,205.7944 C428.54,180.4504 449.276,164.3224 486.52,164.3224 C510.708,164.3224 530.296,168.5504 544.884,172.7744 L544.884,191.9704 Z M488.44,63.7224 C459.64,63.7224 438.136,70.2504 416.252,80.2344 L425.084,104.4264 C443.512,95.9784 461.948,89.8344 485.368,89.8344 C522.616,89.8344 544.5,108.2664 544.5,143.9744 L544.5,150.8864 C526.836,145.8944 508.792,142.4384 483.448,142.4384 C433.144,142.4384 398.592,164.7104 398.592,206.9464 C398.592,248.4144 435.832,269.1504 472.696,269.1504 C507.636,269.1504 530.676,253.0224 544.5,234.9744 L544.5,264.9264 L572.912,264.9264 L572.912,143.5904 C572.912,91.3704 542.58,63.7224 488.44,63.7224 L488.44,63.7224 Z M345.592,191.9704 C345.592,223.4584 315.64,245.7264 279.16,245.7264 C252.288,245.7264 229.248,231.1384 229.248,205.7944 C229.248,180.4504 249.98,164.3224 287.228,164.3224 C311.416,164.3224 331,168.5504 345.592,172.7744 L345.592,191.9704 Z M289.144,63.7224 C260.348,63.7224 238.844,70.2504 216.96,80.2344 L225.792,104.4264 C244.22,95.9784 262.652,89.8344 286.076,89.8344 C323.32,89.8344 345.208,108.2664 345.208,143.9744 L345.208,150.8864 C327.544,145.8944 309.496,142.4384 284.152,142.4384 C233.852,142.4384 199.3,164.7104 199.3,206.9464 C199.3,248.4144 236.54,269.1504 273.404,269.1504 C308.344,269.1504 331.384,253.0224 345.208,234.9744 L345.208,264.9264 L373.62,264.9264 L373.62,143.5904 C373.62,91.3704 343.288,63.7224 289.144,63.7224 L289.144,63.7224 Z M146.296,191.9704 C146.296,223.4584 116.344,245.7264 79.868,245.7264 C52.988,245.7264 29.952,231.1384 29.952,205.7944 C29.952,180.4504 50.684,164.3224 87.932,164.3224 C112.124,164.3224 131.704,168.5504 146.296,172.7744 L146.296,191.9704 Z M89.852,63.7224 C61.052,63.7224 39.552,70.2504 17.664,80.2344 L26.496,104.4264 C44.928,95.9784 63.356,89.8344 86.78,89.8344 C124.024,89.8344 145.912,108.2664 145.912,143.9744 L145.912,150.8864 C128.248,145.8944 110.2,142.4384 84.86,142.4384 C34.56,142.4384 0,164.7104 0,206.9464 C0,248.4144 37.248,269.1504 74.108,269.1504 C109.052,269.1504 132.088,253.0224 145.912,234.9744 L145.912,264.9264 L174.324,264.9264 L174.324,143.5904 C174.324,91.3704 143.992,63.7224 89.852,63.7224 L89.852,63.7224 Z" id="Fill-20" fill="#3C4650"></path>
        </g>
    </g>
</svg>