<?xml version="1.0" encoding="UTF-8"?>
<svg id="Layer_1" data-name="Layer 1" xmlns="http://www.w3.org/2000/svg" width="951.55" height="387.63" viewBox="0 0 951.55 387.63">
  <defs>
    <style>
      .cls-1 {
        fill: #3c4650;
      }

      .cls-2 {
        fill: #d1ff27;
      }
    </style>
  </defs>
  <g>
    <path class="cls-2" d="m733.62,293.25h-12.67c-48.91,48.91-128.49,48.91-177.39,0-48.91-48.91-48.91-128.49,0-177.39,48.91-48.91,128.49-48.91,177.39,0l12.67-12.67c-55.98-55.98-146.75-55.98-202.73,0-55.98,55.98-55.98,146.75,0,202.73,55.98,55.98,146.75,55.98,202.73,0v-12.67Z"/>
    <g>
      <path class="cls-1" d="m819.39,332.42c-36.25,0-60.8-14.42-60.8-62.75v-103.13h-24.95v-46.54h24.95v-58.8h59.25v58.8h49.11v46.54h-49.11v93.39c0,13.64,5.85,20.27,19.1,20.27,10.91,0,20.66-2.73,29.23-7.41v47.55c-12.47,7.41-26.89,12.08-46.77,12.08Z"/>
      <path class="cls-1" d="m892.31,328.91V61.2h59.25v267.72h-59.25Z"/>
      <path class="cls-1" d="m556.23,128.53c-41.99,41.99-41.99,110.06,0,152.05,41.99,41.99,110.06,41.99,152.05,0l-38.01-38.01c-20.96,20.96-55.06,20.96-76.03,0-20.96-20.96-20.96-55.06,0-76.03,20.96-20.96,55.06-20.96,76.03,0h38.01v-38.01c-41.99-41.99-110.06-41.99-152.05,0Zm25.34,25.34c-27.99,27.99-27.99,73.38,0,101.37l-12.67,12.67c-34.93-34.93-34.93-91.78,0-126.71,17.47-17.47,40.41-26.2,63.35-26.2v17.88c-18.34,0-36.69,7-50.68,20.99Z"/>
    </g>
  </g>
  <g>
    <path class="cls-1" d="m147.94,164.38c-10.2-9.17-24.72-13.76-43.58-13.76s-38.87,4.84-60.02,14.53l-8.79-24.08c23.95-10.96,47.91-16.44,71.87-16.44,27.01,0,47.78,6.76,62.31,20.26,14.53,13.51,21.79,33.26,21.79,59.25v120.8h-28.29v-29.82c-17.33,22.69-41.16,34.02-71.49,34.02-19.88,0-37.15-5.48-51.8-16.44-14.66-10.95-21.98-26.12-21.98-45.49,0-20.64,7.65-36.51,22.94-47.59,15.29-11.09,35.8-16.63,61.55-16.63,20.64,0,40.9,2.81,60.78,8.41v-6.88c0-17.58-5.1-30.96-15.29-40.14Zm-42.43,60.4c-18.35,0-32.56,3.7-42.62,11.09-10.07,7.39-15.1,17.46-15.1,30.2s4.78,21.92,14.34,29.05c9.56,7.14,21.34,10.7,35.36,10.7,18.35,0,33.96-5.03,46.83-15.1,12.87-10.06,19.31-22.87,19.31-38.42v-19.11c-19.37-5.6-38.74-8.41-58.11-8.41Z"/>
    <path class="cls-1" d="m401.01,291.29c-22.94,25.49-49.83,38.23-80.66,38.23-28.55,0-52.56-10.06-72.06-30.2-19.5-20.13-29.24-44.34-29.24-72.63s9.75-52.95,29.24-73.21,43.51-30.39,72.06-30.39c30.58,0,56.96,11.73,79.13,35.17l-19.5,20.64c-18.86-19.88-38.87-29.82-60.02-29.82-19.88,0-36.64,7.45-50.27,22.36-13.64,14.91-20.45,33.07-20.45,54.47s6.94,39.95,20.83,54.86c13.89,14.91,31.16,22.36,51.8,22.36,21.92,0,42.05-9.81,60.4-29.44l18.73,17.58Z"/>
    <path class="cls-1" d="m458.73,324.93h-29.44V45.87h29.44v279.06Z"/>
  </g>
</svg>