<?xml version="1.0" encoding="UTF-8" standalone="no"?>
<svg
   width="1072px"
   height="359px"
   viewBox="0 0 1072 359"
   version="1.1"
   id="svg22"
   sodipodi:docname="aclCtl-Lockup-DarkBG.svg"
   inkscape:version="1.2 (dc2aedaf03, 2022-05-15)"
   xmlns:inkscape="http://www.inkscape.org/namespaces/inkscape"
   xmlns:sodipodi="http://sodipodi.sourceforge.net/DTD/sodipodi-0.dtd"
   xmlns="http://www.w3.org/2000/svg"
   xmlns:svg="http://www.w3.org/2000/svg"
   xmlns:rdf="http://www.w3.org/1999/02/22-rdf-syntax-ns#"
   xmlns:cc="http://creativecommons.org/ns#"
   xmlns:dc="http://purl.org/dc/elements/1.1/">
  <defs
     id="defs26" />
  <sodipodi:namedview
     id="namedview24"
     pagecolor="#ffffff"
     bordercolor="#000000"
     borderopacity="0.25"
     inkscape:showpageshadow="2"
     inkscape:pageopacity="0.0"
     inkscape:pagecheckerboard="0"
     inkscape:deskcolor="#d1d1d1"
     showgrid="false"
     inkscape:zoom="1.1287313"
     inkscape:cx="839.88102"
     inkscape:cy="279.07439"
     inkscape:window-width="2560"
     inkscape:window-height="1377"
     inkscape:window-x="3832"
     inkscape:window-y="-8"
     inkscape:window-maximized="1"
     inkscape:current-layer="svg22" />
  <title
     id="title15">aclCtl-Lockup-DarkBG</title>
  <g
     id="aaaCtl-Lockup-DarkBG"
     stroke="none"
     stroke-width="1"
     fill="none"
     fill-rule="evenodd"
     transform="translate(-100.99835,7.0876036)">
    <g
       id="Group-6"
       transform="translate(0.76,25)">
      <path
         d="m 839.6076,233.0972 h 12.728 v 12.728 c -56.236,56.236 -147.412,56.236 -203.648,0 -56.232,-56.236 -56.236,-147.412 0,-203.648 56.236,-56.236 147.412,-56.236 203.648,0 l -12.728,12.728 c -49.128,-49.128 -129.064,-49.128 -178.192,0 -49.128,49.128 -49.124,129.064 0,178.192 49.128,49.128 129.064,49.128 178.192,0"
         id="Fill-18"
         fill="#d1ff27" />
      <path
         d="m 750.5128,54.044 c -23.048,0 -46.096,8.772 -63.64,26.32 -35.092,35.088 -35.092,92.188 0,127.276 l 12.728,-12.728 c -28.116,-28.116 -28.116,-73.704 0,-101.82 C 713.6608,79.032 732.0848,72 750.5128,72 Z m 76.368,13.592 v 12.728 25.452 h -25.456 -12.728 c -21.056,-21.052 -55.312,-21.052 -76.368,0 -21.056,21.056 -21.056,55.316 0,76.368 21.056,21.056 55.312,21.056 76.368,0 l 38.184,38.184 c -42.18,42.18 -110.56,42.176 -152.736,0 -42.176,-42.176 -42.176,-110.556 0,-152.732 42.176,-42.18 110.56,-42.18 152.736,0 z m 184.852,201.288 h 59.512 V 0 h -59.512 z M 936.9248,59.068 h 49.332 v 46.748 h -49.332 v 93.808 c 0,13.704 5.872,20.36 19.188,20.36 10.96,0 20.748,-2.74 29.364,-7.44 v 47.768 c -12.532,7.44 -27.016,12.136 -46.984,12.136 -36.412,0 -61.08,-14.488 -61.08,-63.036 V 105.816 h -25.056 V 59.068 h 25.056 V 0 h 59.512 z"
         id="Fill-19"
         fill="#bcbec0" />
      <path
         id="Fill-20"
         d="m 89.851328,63.722656 c -14.071929,0 -26.385992,1.577314 -37.86914,4.335938 3.649162,6.006096 7.406017,11.946917 11.21289,17.857422 1.217673,1.833657 2.373336,3.70966 3.566406,5.560546 6.319758,-1.021516 12.919418,-1.642578 20.017578,-1.642578 37.243968,0 59.132818,18.432666 59.132818,54.140626 v 6.91211 c -15.42831,-4.36018 -31.15233,-7.54792 -51.769536,-8.28516 0.931662,2.29931 1.849097,4.60405 2.787109,6.90039 1.88683,5.07122 3.597907,10.20001 5.230467,15.35352 17.72314,1.23591 32.53297,4.55899 44.13672,7.91797 v 19.19726 c 0,17.59811 -9.367,32.30658 -23.98828,41.86719 0.6561,2.10104 1.30939,4.20324 2.02734,6.28711 1.25998,3.95664 2.94571,7.88279 4.15821,11.91211 6.90035,-5.12023 12.73585,-10.94974 17.41797,-17.0625 v 29.95117 h 28.4121 V 143.58984 c 0,-52.219944 -30.33271,-79.867184 -84.472652,-79.867184 z m 199.292972,0 c -28.79597,0 -50.29962,6.527729 -72.1836,16.511719 l 8.83203,24.191405 c 18.42799,-8.44799 36.85923,-14.591796 60.28321,-14.591796 37.24396,0 59.13281,18.432666 59.13281,54.140626 v 6.91211 c -17.66398,-4.992 -35.71267,-8.44922 -61.05664,-8.44922 -50.29995,0 -84.85156,22.27381 -84.85156,64.50977 0,41.46795 37.23955,62.20312 74.10351,62.20312 34.93997,0 57.9807,-16.1278 71.80469,-34.17578 v 29.95117 h 28.41211 V 143.58984 c 0,-52.219944 -30.33262,-79.867184 -84.47656,-79.867184 z m 199.29492,0 c -28.79997,0 -50.30352,6.527729 -72.1875,16.511719 l 8.83203,24.191405 c 18.42798,-8.44799 36.86518,-14.591796 60.28516,-14.591796 37.24796,0 59.13086,18.432666 59.13086,54.140626 v 6.91211 c -17.66399,-4.992 -35.70876,-8.44922 -61.05274,-8.44922 -50.30395,0 -84.85547,22.27381 -84.85547,64.50977 0,41.46795 37.23955,62.20312 74.10352,62.20312 34.93996,0 57.9807,-16.1278 71.80469,-34.17578 v 29.95117 h 28.41211 V 143.58984 c 0,-52.219944 -30.33272,-79.867184 -84.47266,-79.867184 z M 43.095469,70.466797 c -8.706032,2.638018 -17.044252,5.941751 -25.431641,9.767578 l 8.832031,24.191405 C 36.532033,99.825868 46.596307,95.957598 57.437266,93.34375 56.866139,92.472078 56.324328,91.580696 55.747813,90.712891 51.438704,84.020776 47.193601,77.287644 43.095469,70.466797 Z m 41.398437,71.980473 c -50.098049,0.10972 -84.494140375,22.36835 -84.494140375,64.5 0,41.46795 37.247458375,62.20312 74.107421375,62.20312 18.9076,0 34.221933,-4.80712 46.583983,-12 -1.03493,-4.8196 -3.38435,-9.57972 -4.73242,-14.14258 -0.54752,-1.59342 -1.03703,-3.20333 -1.54883,-4.80664 -10.096,4.80192 -21.905379,7.52539 -34.541014,7.52539 -26.879973,0 -49.916015,-14.58766 -49.916015,-39.93164 0,-25.34397 20.730552,-41.47265 57.978515,-41.47265 1.634713,0 3.19463,0.0642 4.78711,0.10156 -1.264231,-3.88028 -2.576408,-7.74492 -3.992188,-11.57617 -1.412653,-3.46628 -2.756909,-6.96069 -4.232422,-10.40039 z m 202.734374,21.875 c 24.18798,0 43.7713,4.22717 58.36328,8.45117 v 19.19726 c 0,31.48797 -29.95167,53.75586 -66.43164,53.75586 -26.87197,0 -49.91211,-14.58766 -49.91211,-39.93164 0,-25.34397 20.73251,-41.47265 57.98047,-41.47265 z m 199.29102,0 c 24.18797,0 43.77725,4.22717 58.36523,8.45117 v 19.19726 c 0,31.48797 -29.94777,53.75586 -66.42773,53.75586 -26.87598,0 -49.91602,-14.58766 -49.91602,-39.93164 0,-25.34397 20.73455,-41.47265 57.97852,-41.47265 z" />
    </g>
  </g>
  <text
     xml:space="preserve"
     style="font-style:normal;font-variant:normal;font-weight:500;font-stretch:normal;font-size:400px;font-family:Archivo;-inkscape-font-specification:'Archivo Medium';white-space:pre;inline-size:0;fill:#ccff00"
     x="80.62149"
     y="258.69751"
     id="text305"
     transform="matrix(1,0,0,0.90379808,-99.226448,68.674555)"><tspan
       id="tspan303"
       x="80.62149"
       y="258.69751"
       style="font-style:normal;font-variant:normal;font-weight:normal;font-stretch:normal;font-size:400px;font-family:Roboto;-inkscape-font-specification:Roboto;fill:#ccff00">acl</tspan></text>
  <metadata
     id="metadata357">
    <rdf:RDF>
      <cc:Work
         rdf:about="">
        <dc:title>aclCtl-Lockup-DarkBG</dc:title>
      </cc:Work>
    </rdf:RDF>
  </metadata>
</svg>
