<svg width="245" height="98" viewBox="0 0 245 98" fill="none" xmlns="http://www.w3.org/2000/svg">
<g clip-path="url(#clip0_3_47)">
<path d="M188.483 71.1984H185.166C172.414 83.9497 151.784 83.9497 139.033 71.1984C126.282 58.4472 126.282 37.817 139.033 25.0657C151.784 12.3145 172.414 12.3145 185.166 25.0657L188.483 21.7483C173.866 7.13101 150.229 7.13101 135.716 21.7483C121.202 36.3657 121.098 60.0022 135.716 74.5159C150.333 89.0295 173.97 89.1332 188.483 74.5159V71.1984Z" fill="#D1FF27"/>
<path d="M245.19 10.7594H229.743V80.425H245.19V10.7594Z" fill="#D1D1D1"/>
<path d="M223.212 26.1025V38.2317H210.461V62.5939C210.461 66.1187 212.016 67.8811 215.437 67.8811C218.132 67.8811 220.724 67.259 223.005 66.015V78.4553C219.376 80.6323 215.126 81.669 210.876 81.5654C201.442 81.5654 195.014 77.8333 195.014 65.1857V38.2317H188.483V26.1025H195.014V10.7594H210.461V26.1025H223.212Z" fill="#D1D1D1"/>
<path d="M181.848 28.3832V38.2317H172C166.505 32.7373 157.693 32.7373 152.199 38.2317C146.705 43.7262 146.705 52.538 152.199 58.0325C157.693 63.527 166.505 63.527 172 58.0325L181.848 67.881C170.963 78.4553 153.65 78.4553 142.869 67.881C131.776 57.0995 131.569 39.3721 142.35 28.2795C153.236 17.3943 170.963 17.3943 181.848 28.3832ZM162.048 29.5235V24.8584C155.827 24.8584 149.918 27.3465 145.564 31.7006C136.441 40.8234 136.441 55.5444 145.564 64.6673L148.882 61.3499C141.625 54.0931 141.625 42.2748 148.882 34.9143C152.406 31.3896 157.175 29.5235 162.048 29.5235Z" fill="#D1D1D1"/>
<path d="M22.3018 34.0849C19.5027 34.0849 16.7037 34.396 14.0083 35.1216C11.5202 35.8473 9.03216 36.7803 6.64777 37.9207L4.36706 31.5969C7.16612 30.3529 10.0688 29.2125 13.0752 28.4868C16.3927 27.6575 19.7101 27.3465 23.1311 27.3465C30.1806 27.3465 35.5714 29.1088 39.4072 32.5299C43.2429 35.951 45.109 41.1344 45.109 47.9766V79.492H37.7485V71.7168C35.7788 74.2048 33.2907 76.3819 30.4916 77.9369C26.9669 79.803 23.0275 80.736 19.0881 80.6323C16.7037 80.6323 14.3193 80.2176 12.0386 79.5956C9.86151 78.9736 7.68446 77.9369 5.92209 76.5892C4.05605 75.2415 2.60468 73.4792 1.56799 71.5095C0.427635 69.3324 -0.0907104 66.948 0.0129586 64.46C-0.0907104 61.9719 0.531304 59.4838 1.56799 57.2031C2.60468 55.1298 4.15972 53.3674 6.12943 52.0197C8.20281 50.5683 10.5872 49.5316 13.0752 48.8059C15.978 48.0803 18.9844 47.7693 21.9908 47.7693C24.8935 47.7693 27.7962 47.9766 30.699 48.3913C33.0834 48.8059 35.4677 49.3243 37.8521 49.9463V48.0803C37.8521 43.4152 36.5044 39.8904 33.809 37.6097C31.1137 35.329 27.1742 34.0849 22.3018 34.0849ZM22.6128 53.3674C17.844 53.3674 14.1119 54.3004 11.5202 56.2701C9.03216 58.1362 7.58079 61.0389 7.68446 64.149C7.68446 65.704 7.99547 67.1554 8.72115 68.5031C9.44684 69.7471 10.3799 70.8874 11.5202 71.7168C12.7642 72.6498 14.2156 73.3755 15.667 73.7902C17.222 74.3085 18.8807 74.5159 20.5394 74.5159C22.8201 74.5159 25.1009 74.2048 27.2779 73.4792C29.2476 72.8572 31.1137 71.8205 32.7724 70.5764C34.3274 69.4361 35.5714 67.881 36.4008 66.2223C37.3338 64.46 37.7485 62.5939 37.7485 60.6242V55.5444C35.7788 55.0261 33.6017 54.5077 31.1137 54.0931C28.3146 53.5747 25.5155 53.3674 22.6128 53.3674Z" fill="#D1FF27"/>
<path d="M99.5352 70.5764C97.0471 73.4792 94.0407 75.9672 90.7233 77.8333C86.9912 79.803 82.7408 80.8397 78.4904 80.6323C74.862 80.6323 71.3372 79.9066 68.0198 78.4553C64.9097 77.1076 62.007 75.1379 59.6226 72.6498C54.7502 67.57 52.0548 60.8315 52.1585 53.7821C52.1585 50.2573 52.7805 46.7326 54.1282 43.4152C55.3722 40.2014 57.2382 37.2987 59.6226 34.8106C62.007 32.3226 64.8061 30.3529 68.0198 29.0052C71.3372 27.5538 74.862 26.8281 78.4904 26.8281C80.7711 26.8281 82.9482 27.0355 85.1252 27.5538C88.7536 28.3832 92.2784 30.0419 95.1811 32.4263C96.5288 33.5666 97.8765 34.707 99.1205 36.0547L94.0407 41.4455C92.071 39.3721 89.7903 37.506 87.3022 35.951C84.6069 34.396 81.4968 33.5666 78.3867 33.6703C75.8987 33.6703 73.4106 34.1886 71.1299 35.2253C68.9528 36.262 66.8795 37.7134 65.2208 39.4757C63.562 41.3418 62.2144 43.5188 61.2813 45.7995C60.3483 48.2876 59.83 50.983 59.9336 53.5747C59.9336 56.2701 60.452 58.9655 61.385 61.4536C62.318 63.838 63.6657 66.015 65.3244 67.881C66.9831 69.6434 69.0565 71.0948 71.3372 72.1315C73.7216 73.1682 76.2097 73.6865 78.8014 73.6865C81.9115 73.7902 84.9179 72.9608 87.6132 71.5095C90.205 70.0581 92.4857 68.192 94.5591 66.015L99.5352 70.5764Z" fill="#D1FF27"/>
<path d="M106.896 79.492V6.82001H114.567V79.492H106.896Z" fill="#D1FF27"/>
</g>
<defs>
<clipPath id="clip0_3_47">
<rect width="245" height="98" fill="white"/>
</clipPath>
</defs>
</svg>
