<svg xmlns="http://www.w3.org/2000/svg" viewBox="0 0 236.71 75.85"><defs><style>.cls-1{fill:#d1ff27;}.cls-2{fill:#bcbec0;}</style></defs><g id="Layer_2" data-name="Layer 2"><g id="Layer_1-2" data-name="Layer 1"><path class="cls-1" d="M182,62.12H178.8a31.5,31.5,0,1,1,0-44.54L182,14.39a36,36,0,1,0,0,50.91Z"/><path class="cls-2" d="M203.52,72c-9.11,0-15.27-3.62-15.27-15.76V30.3H182V18.62h6.27V3.85h14.88V18.62h12.33V30.3H203.13V53.75c0,3.43,1.46,5.09,4.79,5.09A15.06,15.06,0,0,0,215.26,57v12A21.91,21.91,0,0,1,203.52,72Z"/><path class="cls-2" d="M221.83,71.08V3.85h14.88V71.08Z"/><path class="cls-2" d="M137.43,20.76a27,27,0,0,0,38.18,38.18l-9.54-9.54a13.5,13.5,0,1,1,0-19.1h9.54V20.76A27,27,0,0,0,137.43,20.76Zm6.36,6.36a18,18,0,0,0,0,25.46l-3.18,3.18a22.49,22.49,0,0,1,15.91-38.4v4.49A18,18,0,0,0,143.79,27.12Z"/><path class="cls-1" d="M21.7,26.3a29.78,29.78,0,0,0-8,1A44.65,44.65,0,0,0,6.62,30L4.42,23.9a49.53,49.53,0,0,1,8.35-3,38.74,38.74,0,0,1,9.69-1.1q10.18,0,15.65,5t5.47,14.92V70.08h-7.1V62.59a24.22,24.22,0,0,1-7,6,21.23,21.23,0,0,1-11,2.6,24.55,24.55,0,0,1-6.77-1,18.48,18.48,0,0,1-5.95-2.93,14.81,14.81,0,0,1-4.23-4.9A14.07,14.07,0,0,1,0,55.58a15.11,15.11,0,0,1,1.54-7,13.79,13.79,0,0,1,4.36-5,21.19,21.19,0,0,1,6.72-3.07,33,33,0,0,1,8.6-1,53.4,53.4,0,0,1,8.35.57,61.9,61.9,0,0,1,6.91,1.54V39.84q0-6.72-3.89-10.13T21.7,26.3ZM22,44.93c-4.65,0-8.23.93-10.71,2.78A9,9,0,0,0,7.58,55.3a8.58,8.58,0,0,0,1,4.22,9.69,9.69,0,0,0,2.73,3.12,12.51,12.51,0,0,0,4,2,16.29,16.29,0,0,0,4.73.67,20.29,20.29,0,0,0,6.46-1,17.24,17.24,0,0,0,5.26-2.78,13.15,13.15,0,0,0,3.54-4.23,11.33,11.33,0,0,0,1.3-5.42V47q-2.79-.76-6.37-1.44A44.57,44.57,0,0,0,22,44.93Z"/><path class="cls-1" d="M96.19,61.54a33.33,33.33,0,0,1-8.49,7,23.3,23.3,0,0,1-11.76,2.73,24.79,24.79,0,0,1-10.13-2.06,25.18,25.18,0,0,1-8.07-5.62A26.07,26.07,0,0,1,50.5,45.41a26.29,26.29,0,0,1,1.92-10,25.72,25.72,0,0,1,5.32-8.31,25.16,25.16,0,0,1,8.07-5.61,24.64,24.64,0,0,1,10.13-2.07,28.86,28.86,0,0,1,6.43.67,23.78,23.78,0,0,1,9.69,4.71,38.72,38.72,0,0,1,3.75,3.45l-4.9,5.19a34.52,34.52,0,0,0-6.48-5.28,15.83,15.83,0,0,0-8.59-2.21,16.73,16.73,0,0,0-7,1.49,17.24,17.24,0,0,0-5.66,4.11,19.41,19.41,0,0,0-3.75,6.13,20.91,20.91,0,0,0-1.34,7.52,20.43,20.43,0,0,0,1.39,7.56,19.31,19.31,0,0,0,3.84,6.18A17.42,17.42,0,0,0,69.12,63a17.61,17.61,0,0,0,7.2,1.48,16.83,16.83,0,0,0,8.5-2.11,28.85,28.85,0,0,0,6.67-5.28Z"/><path class="cls-1" d="M103.29,70.08V0h7.4V70.08Z"/></g></g></svg>