<?xml version="1.0" encoding="UTF-8"?>
<svg id="Layer_1" data-name="Layer 1" xmlns="http://www.w3.org/2000/svg" width="1313.32" height="359" viewBox="0 0 1313.32 359">
  <defs>
    <style>
      .cls-1 {
        fill: #3c4650;
      }

      .cls-2 {
        fill: #d1ff27;
      }
    </style>
  </defs>
  <g>
    <path class="cls-2" d="m1095.25,259.75h-12.67c-48.91,48.91-128.49,48.91-177.39,0-48.91-48.91-48.91-128.49,0-177.39,48.91-48.91,128.49-48.91,177.39,0l12.67-12.67c-55.98-55.98-146.75-55.98-202.73,0-55.98,55.98-55.98,146.75,0,202.73,55.98,55.98,146.75,55.98,202.73,0v-12.67Z"/>
    <g>
      <path class="cls-1" d="m1181.02,298.93c-36.25,0-60.8-14.42-60.8-62.75v-103.13h-24.95v-46.54h24.95V27.7h59.25v58.8h49.11v46.54h-49.11v93.39c0,13.64,5.85,20.27,19.1,20.27,10.91,0,20.66-2.73,29.23-7.41v47.55c-12.47,7.41-26.89,12.08-46.77,12.08Z"/>
      <path class="cls-1" d="m1253.93,295.42V27.7h59.25v267.72h-59.25Z"/>
      <path class="cls-1" d="m917.86,95.03c-41.99,41.99-41.99,110.06,0,152.05,41.99,41.99,110.06,41.99,152.05,0l-38.01-38.01c-20.96,20.96-55.06,20.96-76.03,0-20.96-20.96-20.96-55.06,0-76.03,20.96-20.96,55.06-20.96,76.03,0h38.01v-38.01c-41.99-41.99-110.06-41.99-152.05,0Zm25.34,25.34c-27.99,27.99-27.99,73.38,0,101.37l-12.67,12.67c-34.93-34.93-34.93-91.78,0-126.71,17.47-17.47,40.41-26.2,63.35-26.2v17.88c-18.34,0-36.69,7-50.68,20.99Z"/>
    </g>
  </g>
  <g>
    <path class="cls-1" d="m129.98,130.88c-10.2-9.17-24.72-13.76-43.58-13.76s-38.87,4.84-60.02,14.53l-8.79-24.08c23.95-10.96,47.91-16.44,71.87-16.44,27.01,0,47.78,6.76,62.31,20.26,14.53,13.51,21.79,33.26,21.79,59.25v120.8h-28.29v-29.82c-17.33,22.69-41.16,34.02-71.49,34.02-19.88,0-37.15-5.48-51.8-16.44C7.32,268.25,0,253.09,0,233.71,0,213.07,7.65,197.21,22.94,186.12c15.29-11.09,35.8-16.63,61.55-16.63,20.64,0,40.9,2.81,60.78,8.41v-6.88c0-17.58-5.1-30.96-15.29-40.14Zm-42.43,60.4c-18.35,0-32.56,3.7-42.62,11.09-10.07,7.39-15.1,17.46-15.1,30.2s4.78,21.92,14.34,29.05c9.56,7.14,21.34,10.7,35.36,10.7,18.35,0,33.96-5.03,46.83-15.1,12.87-10.06,19.31-22.87,19.31-38.42v-19.11c-19.37-5.6-38.74-8.41-58.11-8.41Z"/>
    <path class="cls-1" d="m353.61,206.96v-113.16h29.05v197.64h-29.05v-34.41c-16.06,25.74-38.61,38.61-67.66,38.61-23.45,0-41.93-7.2-55.43-21.6-13.51-14.4-20.26-33.58-20.26-57.53v-122.71h29.44v115.45c0,18.61,4.78,33.2,14.34,43.77,9.56,10.58,23,15.86,40.33,15.86s31.22-5.73,42.43-17.2c11.21-11.47,16.82-26.38,16.82-44.73Z"/>
    <path class="cls-1" d="m613.94,291.44h-29.44v-39.76c-19.88,29.31-45.11,43.96-75.69,43.96-25.23,0-47.28-9.37-66.13-28.1-18.86-18.73-28.29-43.64-28.29-74.74s9.43-56.06,28.29-74.93c18.86-18.86,40.9-28.29,66.13-28.29,31.09,0,56.32,14.02,75.69,42.05V12.38h29.44v279.06Zm-28.29-99.01c0-22.17-7.14-40.46-21.41-54.86-14.28-14.4-30.96-21.6-50.08-21.6s-36.45,6.88-49.7,20.64c-13.25,13.76-19.88,32.37-19.88,55.81s6.75,41.48,20.26,55.62c13.51,14.14,29.94,21.22,49.31,21.22s35.8-7.2,50.08-21.6c14.27-14.39,21.41-32.81,21.41-55.24Z"/>
    <path class="cls-1" d="m691.16,50.6h-33.64V18.11h33.64v32.49Zm-2.29,240.84h-29.44V93.8h29.44v197.64Z"/>
    <path class="cls-1" d="m774.1,119.8v115.45c0,21.92,11.09,32.88,33.26,32.88,9.68,0,19.24-2.29,28.67-6.88v25.23c-10.7,5.6-22.55,8.41-35.55,8.41-17.08,0-30.65-4.52-40.71-13.57-10.07-9.04-15.1-23.13-15.1-42.24v-119.27h-27.52v-26h27.52v-59.64h29.44v59.64h62.69v26h-62.69Z"/>
  </g>
</svg>