<?xml version="1.0" encoding="UTF-8"?>
<svg width="1572px" height="359px" viewBox="0 0 1572 359" version="1.1" xmlns="http://www.w3.org/2000/svg" xmlns:xlink="http://www.w3.org/1999/xlink">
    <title>deviceCtl-Lockup-LightBG</title>
    <g id="deviceCtl-Lockup-LightBG" stroke="none" stroke-width="1" fill="none" fill-rule="evenodd">
        <g id="Group-4" transform="translate(0.410000, 10.000000)">
            <path d="M1339.9484,248.47 L1352.6764,248.47 L1352.6764,261.198 C1296.4404,317.434 1205.2644,317.434 1149.0284,261.198 C1092.7964,204.962 1092.7924,113.786 1149.0284,57.55 C1205.2644,1.314 1296.4404,1.314 1352.6764,57.55 L1339.9484,70.278 C1290.8204,21.15 1210.8844,21.15 1161.7564,70.278 C1112.6284,119.406 1112.6324,199.342 1161.7564,248.47 C1210.8844,297.598 1290.8204,297.598 1339.9484,248.47" id="Fill-12" fill="#D1FF27"></path>
            <path d="M1250.8536,69.4168 C1227.8056,69.4168 1204.7576,78.1888 1187.2136,95.7368 C1152.1216,130.8248 1152.1216,187.9248 1187.2136,223.0128 L1199.9416,210.2848 C1171.8256,182.1688 1171.8256,136.5808 1199.9416,108.4648 C1214.0016,94.4048 1232.4256,87.3728 1250.8536,87.3728 L1250.8536,69.4168 Z M1327.2216,83.0088 L1327.2216,95.7368 L1327.2216,121.1888 L1301.7656,121.1888 L1289.0376,121.1888 C1267.9816,100.1368 1233.7256,100.1368 1212.6696,121.1888 C1191.6136,142.2448 1191.6136,176.5048 1212.6696,197.5568 C1233.7256,218.6128 1267.9816,218.6128 1289.0376,197.5568 L1327.2216,235.7408 C1285.0416,277.9208 1216.6616,277.9168 1174.4856,235.7408 C1132.3096,193.5648 1132.3096,125.1848 1174.4856,83.0088 C1216.6616,40.8288 1285.0456,40.8288 1327.2216,83.0088 L1327.2216,83.0088 Z M1512.0736,284.2968 L1571.5856,284.2968 L1571.5856,15.3728 L1512.0736,15.3728 L1512.0736,284.2968 Z M1437.2656,74.4408 L1486.5976,74.4408 L1486.5976,121.1888 L1437.2656,121.1888 L1437.2656,214.9968 C1437.2656,228.7008 1443.1376,235.3568 1456.4536,235.3568 C1467.4136,235.3568 1477.2016,232.6168 1485.8176,227.9168 L1485.8176,275.6848 C1473.2856,283.1248 1458.8016,287.8208 1438.8336,287.8208 C1402.4216,287.8208 1377.7536,273.3328 1377.7536,224.7848 L1377.7536,121.1888 L1352.6976,121.1888 L1352.6976,74.4408 L1377.7536,74.4408 L1377.7536,15.3768 L1437.2656,15.3768 L1437.2656,74.4408 Z" id="Fill-13" fill="#3C4650"></path>
            <path d="M643.188,280.296 L672.756,280.296 L672.756,81.784 L643.188,81.784 L643.188,280.296 Z M641.272,38.396 L675.06,38.396 L675.06,5.756 L641.272,5.756 L641.272,38.396 Z M585.196,81.784 L617.068,81.784 L530.676,281.832 L504.564,281.832 L418.556,81.784 L451.192,81.784 L518.008,246.508 L585.196,81.784 Z M100.216,258.028 C62.588,258.028 30.336,228.076 30.336,180.848 C30.336,132.468 61.82,104.056 100.216,104.056 C137.076,104.056 172.016,134.772 172.016,180.848 C172.016,227.312 137.076,258.028 100.216,258.028 L100.216,258.028 Z M170.864,119.8 C155.512,97.528 131.7,77.56 94.844,77.56 C47.228,77.56 1.13686838e-13,115.96 1.13686838e-13,181.236 C1.13686838e-13,246.892 47.228,284.524 94.844,284.524 C131.32,284.524 154.74,264.172 170.864,240.364 L170.864,280.3 L200.432,280.3 L200.432,-1.98951966e-13 L170.864,-1.98951966e-13 L170.864,119.8 Z M870.12,228.844 L888.932,246.508 C868.968,268.78 845.16,284.904 807.912,284.904 C749.936,284.904 706.164,237.676 706.164,181.616 C706.164,125.172 749.936,77.56 807.912,77.56 C845.544,77.56 868.968,93.304 887.396,112.888 L867.816,133.62 C852.072,117.112 834.408,103.672 807.528,103.672 C767.212,103.672 736.496,137.844 736.496,180.848 C736.496,224.236 767.984,258.412 809.452,258.412 C834.792,258.412 854.372,245.74 870.12,228.844 L870.12,228.844 Z M261.112,170.1 C264.952,131.32 291.064,102.52 325.62,102.52 C365.172,102.52 385.904,134.004 388.976,170.1 L261.112,170.1 Z M326.388,77.56 C271.48,77.56 231.164,123.64 231.164,181.236 C231.164,243.052 275.704,284.904 330.228,284.904 C367.856,284.904 392.048,269.932 412.012,247.66 L393.584,231.152 C377.456,248.044 358.26,259.18 330.996,259.18 C296.052,259.18 265.34,234.988 261.112,191.984 L418.54,191.984 C418.924,188.528 418.924,185.456 418.924,182.768 C418.924,124.404 385.136,77.56 326.388,77.56 L326.388,77.56 Z M926.576,170.1 C930.416,131.32 956.524,102.52 991.084,102.52 C1030.632,102.52 1051.364,134.004 1054.44,170.1 L926.576,170.1 Z M1084.388,182.768 C1084.388,124.404 1050.6,77.56 991.848,77.56 C936.944,77.56 896.628,123.64 896.628,181.236 C896.628,243.052 941.168,284.904 995.688,284.904 C1033.32,284.904 1057.512,269.932 1077.48,247.66 L1059.044,231.152 C1042.92,248.044 1023.72,259.18 996.46,259.18 C961.516,259.18 930.8,234.988 926.576,191.984 L1084.008,191.984 C1084.388,188.528 1084.388,185.456 1084.388,182.768 L1084.388,182.768 Z" id="Fill-14" fill="#3C4650"></path>
        </g>
    </g>
</svg>