<?xml version="1.0" encoding="UTF-8"?>
<svg width="713px" height="359px" viewBox="0 0 713 359" version="1.1" xmlns="http://www.w3.org/2000/svg" xmlns:xlink="http://www.w3.org/1999/xlink">
    <title>ixCtl-Lockup-LightBG</title>
    <g id="ixCtl-Lockup-LightBG" stroke="none" stroke-width="1" fill="none" fill-rule="evenodd">
        <g id="Group-2" transform="translate(0.060000, 16.000000)">
            <path d="M481.2972,242.7112 L494.0252,242.7112 L494.0252,255.4392 C437.7892,311.6752 346.6132,311.6752 290.3772,255.4392 C234.1412,199.2032 234.1412,108.0272 290.3772,51.7912 C346.6132,-4.4448 437.7892,-4.4448 494.0252,51.7912 L481.2972,64.5192 C432.1692,15.3912 352.2332,15.3912 303.1052,64.5192 C253.9772,113.6472 253.9772,193.5832 303.1052,242.7112 C352.2332,291.8392 432.1692,291.8392 481.2972,242.7112" id="Fill-6" fill="#D1FF27"></path>
            <path d="M392.2016,63.658 C369.1536,63.658 346.1096,72.43 328.5616,89.978 C293.4696,125.066 293.4696,182.166 328.5616,217.254 L341.2896,204.526 C313.1736,176.41 313.1736,130.822 341.2896,102.706 C355.3496,88.646 373.7776,81.614 392.2016,81.614 L392.2016,63.658 Z M468.5696,77.25 L468.5696,89.978 L468.5696,115.43 L443.1136,115.43 L430.3856,115.43 C409.3296,94.378 375.0736,94.378 354.0176,115.43 C332.9616,136.486 332.9616,170.746 354.0176,191.798 C375.0736,212.854 409.3296,212.854 430.3856,191.798 L468.5696,229.982 C426.3936,272.162 358.0096,272.158 315.8336,229.982 C273.6576,187.806 273.6576,119.426 315.8336,77.25 C358.0136,35.07 426.3936,35.07 468.5696,77.25 L468.5696,77.25 Z M653.4256,278.538 L712.9376,278.538 L712.9376,9.614 L653.4256,9.614 L653.4256,278.538 Z M578.6176,68.682 L627.9456,68.682 L627.9456,115.43 L578.6176,115.43 L578.6176,209.238 C578.6176,222.942 584.4896,229.598 597.8016,229.598 C608.7616,229.598 618.5496,226.858 627.1656,222.158 L627.1656,269.926 C614.6376,277.366 600.1496,282.062 580.1816,282.062 C543.7696,282.062 519.1056,267.574 519.1056,219.026 L519.1056,115.43 L494.0456,115.43 L494.0456,68.682 L519.1056,68.682 L519.1056,9.618 L578.6176,9.618 L578.6176,68.682 Z" id="Fill-7" fill="#3C4650"></path>
            <path d="M171.252,172.788 L246.508,76.028 L213.488,76.028 L154.74,152.82 L95.996,76.028 L62.204,76.028 L137.08,173.556 L59.132,274.54 L92.152,274.54 L153.972,193.524 L215.408,274.54 L249.58,274.54 L171.252,172.788 Z M1.916,274.54 L31.488,274.54 L31.488,76.028 L1.916,76.028 L1.916,274.54 Z M5.68434189e-14,32.64 L33.788,32.64 L33.788,-5.68434189e-14 L5.68434189e-14,-5.68434189e-14 L5.68434189e-14,32.64 Z" id="Fill-8" fill="#3C4650"></path>
        </g>
    </g>
</svg>