<?xml version="1.0" encoding="UTF-8"?>
<svg width="1155px" height="359px" viewBox="0 0 1155 359" version="1.1" xmlns="http://www.w3.org/2000/svg" xmlns:xlink="http://www.w3.org/1999/xlink">
    <title>pdbCtl-Lockup-LightBG</title>
    <g id="pdbCtl-Lockup-LightBG" stroke="none" stroke-width="1" fill="none" fill-rule="evenodd">
        <g id="Group-5" transform="translate(0.820000, 10.000000)">
            <path d="M922.542,248.4692 L935.27,248.4692 L935.27,261.1972 C879.034,317.4332 787.858,317.4332 731.622,261.1972 C675.39,204.9612 675.386,113.7852 731.622,57.5492 C787.858,1.3132 879.034,1.3132 935.27,57.5492 L922.542,70.2772 C873.414,21.1492 793.478,21.1492 744.35,70.2772 C695.222,119.4052 695.226,199.3412 744.35,248.4692 C793.478,297.5972 873.414,297.5972 922.542,248.4692" id="Fill-15" fill="#D1FF27"></path>
            <path d="M833.4472,69.4156 C810.3992,69.4156 787.3512,78.1876 769.8072,95.7356 C734.7152,130.8236 734.7152,187.9236 769.8072,223.0116 L782.5352,210.2836 C754.4192,182.1676 754.4192,136.5796 782.5352,108.4636 C796.5952,94.4036 815.0192,87.3716 833.4472,87.3716 L833.4472,69.4156 Z M909.8152,83.0076 L909.8152,95.7356 L909.8152,121.1876 L884.3592,121.1876 L871.6312,121.1876 C850.5752,100.1356 816.3192,100.1356 795.2632,121.1876 C774.2072,142.2436 774.2072,176.5036 795.2632,197.5556 C816.3192,218.6116 850.5752,218.6116 871.6312,197.5556 L909.8152,235.7396 C867.6352,277.9196 799.2552,277.9156 757.0792,235.7396 C714.9032,193.5636 714.9032,125.1836 757.0792,83.0076 C799.2552,40.8276 867.6392,40.8276 909.8152,83.0076 L909.8152,83.0076 Z M1094.6672,284.2956 L1154.1792,284.2956 L1154.1792,15.3716 L1094.6672,15.3716 L1094.6672,284.2956 Z M1019.8592,74.4396 L1069.1912,74.4396 L1069.1912,121.1876 L1019.8592,121.1876 L1019.8592,214.9956 C1019.8592,228.6996 1025.7312,235.3556 1039.0472,235.3556 C1050.0072,235.3556 1059.7952,232.6156 1068.4112,227.9156 L1068.4112,275.6836 C1055.8792,283.1236 1041.3952,287.8196 1021.4272,287.8196 C985.0152,287.8196 960.3472,273.3316 960.3472,224.7836 L960.3472,121.1876 L935.2912,121.1876 L935.2912,74.4396 L960.3472,74.4396 L960.3472,15.3756 L1019.8592,15.3756 L1019.8592,74.4396 Z" id="Fill-16" fill="#3C4650"></path>
            <path d="M564.08,258.028 C527.216,258.028 492.276,227.308 492.276,180.848 C492.276,134.772 527.216,104.052 564.08,104.052 C601.708,104.052 633.964,134.004 633.964,181.232 C633.964,229.612 602.476,258.028 564.08,258.028 L564.08,258.028 Z M569.456,77.56 C532.98,77.56 509.556,97.912 493.428,121.716 L493.428,-5.68434189e-14 L463.86,-5.68434189e-14 L463.86,280.296 L493.428,280.296 L493.428,242.284 C508.788,264.556 532.592,284.524 569.456,284.524 C617.452,284.524 664.296,246.124 664.296,180.848 C664.296,115.192 617.068,77.56 569.456,77.56 L569.456,77.56 Z M320.632,258.028 C283,258.028 250.748,228.076 250.748,180.848 C250.748,132.468 282.232,104.052 320.632,104.052 C357.492,104.052 392.432,134.772 392.432,180.848 C392.432,227.308 357.492,258.028 320.632,258.028 L320.632,258.028 Z M391.28,119.796 C375.924,97.528 352.116,77.56 315.256,77.56 C267.644,77.56 220.412,115.956 220.412,181.232 C220.412,246.892 267.644,284.524 315.256,284.524 C351.732,284.524 375.156,264.172 391.28,240.364 L391.28,280.296 L420.844,280.296 L420.844,-5.68434189e-14 L391.28,-5.68434189e-14 L391.28,119.796 Z M100.216,258.028 C63.356,258.028 28.416,227.308 28.416,180.848 C28.416,134.772 63.356,104.052 100.216,104.052 C137.844,104.052 170.1,134.004 170.1,181.232 C170.1,229.612 138.616,258.028 100.216,258.028 L100.216,258.028 Z M105.592,77.56 C69.116,77.56 45.692,97.912 29.568,121.716 L29.568,81.784 L0,81.784 L0,341.732 L29.568,341.732 L29.568,242.284 C44.928,264.556 68.732,284.524 105.592,284.524 C153.592,284.524 200.436,246.124 200.436,180.848 C200.436,115.192 153.204,77.56 105.592,77.56 L105.592,77.56 Z" id="Fill-17" fill="#3C4650"></path>
        </g>
    </g>
</svg>