<?xml version="1.0" encoding="UTF-8"?>
<svg width="1232px" height="359px" viewBox="0 0 1232 359" version="1.1" xmlns="http://www.w3.org/2000/svg" xmlns:xlink="http://www.w3.org/1999/xlink">
    <title>peerCtl-Lockup-DarkBG</title>
    <g id="peerCtl-Lockup-DarkBG" stroke="none" stroke-width="1" fill="none" fill-rule="evenodd">
        <g id="Group" transform="translate(0.630000, 25.000000)">
            <path d="M999.7308,233.0972 L1012.4588,233.0972 L1012.4588,245.8252 C956.2228,302.0612 865.0468,302.0612 808.8108,245.8252 C752.5748,189.5892 752.5748,98.4132 808.8108,42.1772 C865.0468,-14.0588 956.2228,-14.0588 1012.4588,42.1772 L999.7308,54.9052 C950.6028,5.7772 870.6668,5.7772 821.5388,54.9052 C772.4108,104.0332 772.4108,183.9692 821.5388,233.0972 C870.6668,282.2252 950.6028,282.2252 999.7308,233.0972" id="Fill-9" fill="#D1FF27"></path>
            <path d="M910.6352,54.044 C887.5872,54.044 864.5432,62.816 846.9952,80.364 C811.9032,115.452 811.9032,172.552 846.9952,207.64 L859.7232,194.912 C831.6072,166.796 831.6072,121.208 859.7232,93.092 C873.7832,79.032 892.2112,72 910.6352,72 L910.6352,54.044 Z M987.0032,67.636 L987.0032,80.364 L987.0032,105.816 L961.5472,105.816 L948.8192,105.816 C927.7632,84.764 893.5072,84.764 872.4512,105.816 C851.3952,126.872 851.3952,161.132 872.4512,182.184 C893.5072,203.24 927.7632,203.24 948.8192,182.184 L987.0032,220.368 C944.8272,262.548 876.4432,262.544 834.2672,220.368 C792.0912,178.192 792.0912,109.812 834.2672,67.636 C876.4472,25.456 944.8272,25.456 987.0032,67.636 L987.0032,67.636 Z M1171.8592,268.924 L1231.3712,268.924 L1231.3712,1.42108547e-13 L1171.8592,1.42108547e-13 L1171.8592,268.924 Z M1097.0512,59.068 L1146.3792,59.068 L1146.3792,105.816 L1097.0512,105.816 L1097.0512,199.624 C1097.0512,213.328 1102.9232,219.984 1116.2352,219.984 C1127.1952,219.984 1136.9832,217.244 1145.5992,212.544 L1145.5992,260.312 C1133.0712,267.752 1118.5832,272.448 1098.6152,272.448 C1062.2032,272.448 1037.5392,257.96 1037.5392,209.412 L1037.5392,105.816 L1012.4792,105.816 L1012.4792,59.068 L1037.5392,59.068 L1037.5392,0.004 L1097.0512,0.004 L1097.0512,59.068 Z" id="Fill-10" fill="#BCBEC0"></path>
            <path d="M751.088,62.9568 L751.088,94.8248 L748.784,94.8248 C705.396,94.8248 670.068,125.9288 670.068,185.8288 L670.068,264.9248 L640.504,264.9248 L640.504,66.4128 L670.068,66.4128 L670.068,118.2488 C684.664,85.2248 713.46,61.4208 751.088,62.9568 L751.088,62.9568 Z M453.88,154.7248 C457.716,115.9448 483.832,87.1448 518.388,87.1448 C557.936,87.1448 578.672,118.6328 581.74,154.7248 L453.88,154.7248 Z M519.156,62.1888 C464.248,62.1888 423.928,108.2648 423.928,165.8608 C423.928,227.6808 468.472,269.5328 522.996,269.5328 C560.624,269.5328 584.816,254.5568 604.78,232.2888 L586.348,215.7768 C570.224,232.6728 551.024,243.8048 523.764,243.8048 C488.82,243.8048 458.104,219.6168 453.88,176.6128 L611.312,176.6128 C611.692,173.1568 611.692,170.0848 611.692,167.3968 C611.692,109.0328 577.904,62.1888 519.156,62.1888 L519.156,62.1888 Z M249.592,154.7248 C253.436,115.9448 279.544,87.1448 314.1,87.1448 C353.652,87.1448 374.384,118.6328 377.46,154.7248 L249.592,154.7248 Z M314.868,62.1888 C259.96,62.1888 219.648,108.2648 219.648,165.8608 C219.648,227.6808 264.184,269.5328 318.708,269.5328 C356.336,269.5328 380.528,254.5568 400.5,232.2888 L382.064,215.7768 C365.936,232.6728 346.74,243.8048 319.476,243.8048 C284.536,243.8048 253.82,219.6168 249.592,176.6128 L407.02,176.6128 C407.404,173.1568 407.404,170.0848 407.404,167.3968 C407.404,109.0328 373.616,62.1888 314.868,62.1888 L314.868,62.1888 Z M100.216,242.6568 C63.356,242.6568 28.412,211.9368 28.412,165.4768 C28.412,119.4008 63.356,88.6808 100.216,88.6808 C137.844,88.6808 170.1,118.6328 170.1,165.8608 C170.1,214.2408 138.616,242.6568 100.216,242.6568 L100.216,242.6568 Z M105.592,62.1888 C69.116,62.1888 45.692,82.5408 29.568,106.3448 L29.568,66.4128 L0,66.4128 L0,326.3608 L29.568,326.3608 L29.568,226.9128 C44.928,249.1848 68.732,269.1488 105.592,269.1488 C153.592,269.1488 200.436,230.7528 200.436,165.4768 C200.436,99.8168 153.204,62.1888 105.592,62.1888 L105.592,62.1888 Z" id="Fill-11" fill="#D1FF27"></path>
        </g>
    </g>
</svg>