<?xml version="1.0" encoding="UTF-8"?>
<svg width="1431px" height="359px" viewBox="0 0 1431 359" version="1.1" xmlns="http://www.w3.org/2000/svg" xmlns:xlink="http://www.w3.org/1999/xlink">
    <title>prefixCtl-Lockup-DarkBG</title>
    <g id="prefixCtl-Lockup-DarkBG" stroke="none" stroke-width="1" fill="none" fill-rule="evenodd">
        <g id="Group-3" transform="translate(-0.600000, 1.000000)">
            <path d="M1199.4184,257.7916 L1212.1464,257.7916 L1212.1464,270.5196 C1155.9104,326.7556 1064.7344,326.7556 1008.4984,270.5196 C952.2624,214.2836 952.2624,123.1076 1008.4984,66.8716 C1064.7344,10.6356 1155.9104,10.6356 1212.1464,66.8716 L1199.4184,79.5996 C1150.2904,30.4716 1070.3544,30.4716 1021.2264,79.5996 C972.0984,128.7276 972.0984,208.6636 1021.2264,257.7916 C1070.3544,306.9196 1150.2904,306.9196 1199.4184,257.7916" id="Fill-1" fill="#D1FF27"></path>
            <path d="M1371.5464,293.618 L1431.0584,293.618 L1431.0584,24.694 L1371.5464,24.694 L1371.5464,293.618 Z M1296.7384,83.762 L1346.0664,83.762 L1346.0664,130.514 L1296.7384,130.514 L1296.7384,224.318 C1296.7384,238.022 1302.6104,244.678 1315.9224,244.678 C1326.8824,244.678 1336.6704,241.938 1345.2864,237.238 L1345.2864,285.006 C1332.7584,292.446 1318.2704,297.142 1298.3024,297.142 C1261.8904,297.142 1237.2264,282.658 1237.2264,234.106 L1237.2264,130.514 L1212.1664,130.514 L1212.1664,83.762 L1237.2264,83.762 L1237.2264,24.698 L1296.7384,24.698 L1296.7384,83.762 Z M1110.3224,96.698 C1091.8944,96.698 1073.4704,103.726 1059.4104,117.786 C1031.2944,145.902 1031.2944,191.49 1059.4104,219.606 L1046.6824,232.334 C1011.5904,197.246 1011.5904,140.146 1046.6824,105.058 C1064.2304,87.51 1087.2744,78.738 1110.3224,78.738 L1110.3224,96.698 Z M1033.9544,92.33 C991.7784,134.506 991.7784,202.886 1033.9544,245.062 C1076.1304,287.242 1144.5144,287.242 1186.6904,245.062 L1148.5064,206.882 C1127.4504,227.934 1093.1944,227.934 1072.1384,206.882 C1051.0824,185.826 1051.0824,151.566 1072.1384,130.514 C1093.1944,109.458 1127.4504,109.458 1148.5064,130.514 L1161.2344,130.514 L1186.6904,130.514 L1186.6904,105.058 L1186.6904,92.33 C1144.5144,50.154 1076.1304,50.154 1033.9544,92.33 L1033.9544,92.33 Z" id="Fill-3" fill="#BCBEC0"></path>
            <path d="M595.104,69.204 L595.104,87.208 L566.704,87.208 L566.704,114.008 L595.104,114.008 L595.104,293.62 L625.908,293.62 L625.908,114.008 L691.112,114.008 L691.112,87.608 L625.508,87.608 L625.508,70.804 C625.508,41.204 637.512,26.8 661.512,26.8 C671.908,26.8 680.312,28.8 691.512,32.004 L691.512,5.2 C681.512,1.604 671.908,-1.13686838e-13 657.512,-1.13686838e-13 C617.908,-1.13686838e-13 595.104,24 595.104,69.204 L595.104,69.204 Z M885.5,187.616 L963.904,86.804 L929.504,86.804 L868.3,166.808 L807.096,86.804 L771.892,86.804 L849.896,188.412 L768.692,293.62 L803.096,293.62 L867.5,209.216 L931.504,293.62 L967.104,293.62 L885.5,187.616 Z M709.1,293.62 L739.9,293.62 L739.9,86.808 L709.1,86.808 L709.1,293.62 Z M522.316,178.812 C519.116,141.208 497.516,108.408 456.312,108.408 C420.312,108.408 393.108,138.412 389.108,178.812 L522.316,178.812 Z M553.52,192.012 C553.52,194.812 553.52,198.012 553.116,201.616 L389.108,201.616 C393.508,246.416 425.512,271.62 461.912,271.62 C490.316,271.62 510.316,260.016 527.116,242.416 L546.32,259.62 C525.516,282.816 500.316,298.42 461.112,298.42 C404.308,298.42 357.904,254.816 357.904,190.412 C357.904,130.408 399.908,82.408 457.112,82.408 C518.316,82.408 553.52,131.208 553.52,192.012 L553.52,192.012 Z M707.1,41.604 L742.304,41.604 L742.304,7.604 L707.1,7.604 L707.1,41.604 Z M177.208,190.412 C177.208,141.208 143.608,110.008 104.404,110.008 C66.004,110.008 29.6,142.008 29.6,190.012 C29.6,238.416 66.004,270.42 104.404,270.42 C144.408,270.42 177.208,240.816 177.208,190.412 L177.208,190.412 Z M208.812,190.012 C208.812,258.016 160.012,298.02 110.008,298.02 C71.604,298.02 46.804,277.22 30.8,254.016 L30.8,357.62 L0,357.62 L0,86.804 L30.8,86.804 L30.8,128.408 C47.604,103.608 72.004,82.408 110.008,82.408 C159.608,82.408 208.812,121.612 208.812,190.012 L208.812,190.012 Z M356.8,83.208 L356.8,116.408 L354.4,116.408 C309.196,116.408 272.392,148.808 272.392,211.216 L272.392,293.62 L241.592,293.62 L241.592,86.804 L272.392,86.804 L272.392,140.808 C287.596,106.408 317.596,81.608 356.8,83.208 L356.8,83.208 Z" id="Fill-5" fill="#D1FF27"></path>
        </g>
    </g>
</svg>