<svg width="18" height="18" viewBox="0 0 18 18" fill="none" xmlns="http://www.w3.org/2000/svg">
<g clip-path="url(#clip0_360_465)">
<path d="M4.5 10.125C5.12132 10.125 5.625 9.62132 5.625 9C5.625 8.37868 5.12132 7.875 4.5 7.875C3.87868 7.875 3.375 8.37868 3.375 9C3.375 9.62132 3.87868 10.125 4.5 10.125Z" fill="white"/>
<path d="M9 10.125C9.62132 10.125 10.125 9.62132 10.125 9C10.125 8.37868 9.62132 7.875 9 7.875C8.37868 7.875 7.875 8.37868 7.875 9C7.875 9.62132 8.37868 10.125 9 10.125Z" fill="white"/>
<path d="M13.5 10.125C14.1213 10.125 14.625 9.62132 14.625 9C14.625 8.37868 14.1213 7.875 13.5 7.875C12.8787 7.875 12.375 8.37868 12.375 9C12.375 9.62132 12.8787 10.125 13.5 10.125Z" fill="white"/>
</g>
<defs>
<clipPath id="clip0_360_465">
<rect width="18" height="18" fill="white"/>
</clipPath>
</defs>
</svg>
