<svg width="20" height="20" viewBox="0 0 20 20" fill="none" xmlns="http://www.w3.org/2000/svg">
<g clip-path="url(#clip0_28_300)">
<path d="M16.25 13.75C15.8086 13.7522 15.3762 13.8754 15 14.1062L13.0688 12.1687C13.5181 11.5349 13.7595 10.777 13.7595 10C13.7595 9.22298 13.5181 8.46514 13.0688 7.83125L15 5.89375C15.3762 6.12462 15.8086 6.24784 16.25 6.25C16.7445 6.25 17.2278 6.10338 17.6389 5.82867C18.05 5.55397 18.3705 5.16352 18.5597 4.70671C18.7489 4.24989 18.7984 3.74723 18.702 3.26227C18.6055 2.77732 18.3674 2.33186 18.0178 1.98223C17.6681 1.6326 17.2227 1.3945 16.7377 1.29804C16.2528 1.20157 15.7501 1.25108 15.2933 1.4403C14.8365 1.62952 14.446 1.94995 14.1713 2.36107C13.8966 2.7722 13.75 3.25555 13.75 3.75C13.7522 4.19141 13.8754 4.62377 14.1063 5L12.1688 6.93125C11.5349 6.48187 10.777 6.2405 10 6.2405C9.22298 6.2405 8.46515 6.48187 7.83125 6.93125L5.89375 5C6.12462 4.62377 6.24784 4.19141 6.25 3.75C6.25 3.25555 6.10338 2.7722 5.82868 2.36107C5.55397 1.94995 5.16352 1.62952 4.70671 1.4403C4.24989 1.25108 3.74723 1.20157 3.26228 1.29804C2.77732 1.3945 2.33187 1.6326 1.98223 1.98223C1.6326 2.33186 1.3945 2.77732 1.29804 3.26227C1.20157 3.74723 1.25108 4.24989 1.4403 4.70671C1.62952 5.16352 1.94995 5.55397 2.36108 5.82867C2.7722 6.10338 3.25555 6.25 3.75 6.25C4.19141 6.24784 4.62377 6.12462 5 5.89375L6.93125 7.83125C6.48187 8.46514 6.2405 9.22298 6.2405 10C6.2405 10.777 6.48187 11.5349 6.93125 12.1687L5 14.1062C4.62377 13.8754 4.19141 13.7522 3.75 13.75C3.25555 13.75 2.7722 13.8966 2.36108 14.1713C1.94995 14.446 1.62952 14.8365 1.4403 15.2933C1.25108 15.7501 1.20157 16.2528 1.29804 16.7377C1.3945 17.2227 1.6326 17.6681 1.98223 18.0178C2.33187 18.3674 2.77732 18.6055 3.26228 18.702C3.74723 18.7984 4.24989 18.7489 4.70671 18.5597C5.16352 18.3705 5.55397 18.05 5.82868 17.6389C6.10338 17.2278 6.25 16.7445 6.25 16.25C6.24784 15.8086 6.12462 15.3762 5.89375 15L7.83125 13.0688C8.46515 13.5181 9.22298 13.7595 10 13.7595C10.777 13.7595 11.5349 13.5181 12.1688 13.0688L14.1063 15C13.8754 15.3762 13.7522 15.8086 13.75 16.25C13.75 16.7445 13.8966 17.2278 14.1713 17.6389C14.446 18.05 14.8365 18.3705 15.2933 18.5597C15.7501 18.7489 16.2528 18.7984 16.7377 18.702C17.2227 18.6055 17.6681 18.3674 18.0178 18.0178C18.3674 17.6681 18.6055 17.2227 18.702 16.7377C18.7984 16.2528 18.7489 15.7501 18.5597 15.2933C18.3705 14.8365 18.05 14.446 17.6389 14.1713C17.2278 13.8966 16.7445 13.75 16.25 13.75ZM16.25 2.5C16.4972 2.5 16.7389 2.57331 16.9445 2.71066C17.15 2.84801 17.3102 3.04324 17.4049 3.27165C17.4995 3.50005 17.5242 3.75139 17.476 3.99386C17.4278 4.23634 17.3087 4.45907 17.1339 4.63388C16.9591 4.8087 16.7363 4.92775 16.4939 4.97598C16.2514 5.02421 16.0001 4.99946 15.7716 4.90485C15.5432 4.81024 15.348 4.65002 15.2107 4.44446C15.0733 4.2389 15 3.99723 15 3.75C15 3.41848 15.1317 3.10054 15.3661 2.86612C15.6005 2.6317 15.9185 2.5 16.25 2.5ZM2.5 3.75C2.5 3.50277 2.57331 3.2611 2.71066 3.05554C2.84802 2.84998 3.04324 2.68976 3.27165 2.59515C3.50005 2.50054 3.75139 2.47579 3.99386 2.52402C4.23634 2.57225 4.45907 2.6913 4.63388 2.86612C4.8087 3.04093 4.92775 3.26366 4.97598 3.50614C5.02421 3.74861 4.99946 3.99995 4.90485 4.22835C4.81024 4.45676 4.65003 4.65199 4.44446 4.78934C4.2389 4.92669 3.99723 5 3.75 5C3.41848 5 3.10054 4.8683 2.86612 4.63388C2.6317 4.39946 2.5 4.08152 2.5 3.75ZM3.75 17.5C3.50277 17.5 3.2611 17.4267 3.05554 17.2893C2.84998 17.152 2.68976 16.9568 2.59515 16.7284C2.50054 16.4999 2.47579 16.2486 2.52402 16.0061C2.57225 15.7637 2.6913 15.5409 2.86612 15.3661C3.04093 15.1913 3.26366 15.0723 3.50614 15.024C3.74861 14.9758 3.99995 15.0005 4.22836 15.0952C4.45676 15.1898 4.65199 15.35 4.78934 15.5555C4.92669 15.7611 5 16.0028 5 16.25C5 16.5815 4.86831 16.8995 4.63388 17.1339C4.39946 17.3683 4.08152 17.5 3.75 17.5ZM10 12.5C9.50555 12.5 9.0222 12.3534 8.61108 12.0787C8.19995 11.804 7.87952 11.4135 7.6903 10.9567C7.50108 10.4999 7.45157 9.99723 7.54804 9.51227C7.6445 9.02732 7.8826 8.58186 8.23223 8.23223C8.58187 7.8826 9.02732 7.6445 9.51228 7.54804C9.99723 7.45157 10.4999 7.50108 10.9567 7.6903C11.4135 7.87952 11.804 8.19995 12.0787 8.61107C12.3534 9.0222 12.5 9.50555 12.5 10C12.5 10.663 12.2366 11.2989 11.7678 11.7678C11.2989 12.2366 10.663 12.5 10 12.5ZM16.25 17.5C16.0028 17.5 15.7611 17.4267 15.5555 17.2893C15.35 17.152 15.1898 16.9568 15.0952 16.7284C15.0005 16.4999 14.9758 16.2486 15.024 16.0061C15.0723 15.7637 15.1913 15.5409 15.3661 15.3661C15.5409 15.1913 15.7637 15.0723 16.0061 15.024C16.2486 14.9758 16.4999 15.0005 16.7284 15.0952C16.9568 15.1898 17.152 15.35 17.2893 15.5555C17.4267 15.7611 17.5 16.0028 17.5 16.25C17.5 16.5815 17.3683 16.8995 17.1339 17.1339C16.8995 17.3683 16.5815 17.5 16.25 17.5Z" fill="white"/>
</g>
<defs>
<clipPath id="clip0_28_300">
<rect width="20" height="20" fill="white"/>
</clipPath>
</defs>
</svg>
