<svg width="32" height="32" viewBox="0 0 32 32" fill="none" xmlns="http://www.w3.org/2000/svg">
<g opacity="0.5" clip-path="url(#clip0_28_376)">
<path d="M16 2C13.2311 2 10.5243 2.82109 8.22202 4.35943C5.91973 5.89777 4.12532 8.08427 3.06569 10.6424C2.00607 13.2006 1.72882 16.0155 2.26901 18.7313C2.80921 21.447 4.14258 23.9416 6.10051 25.8995C8.05845 27.8574 10.553 29.1908 13.2687 29.731C15.9845 30.2712 18.7994 29.9939 21.3576 28.9343C23.9157 27.8747 26.1022 26.0803 27.6406 23.778C29.1789 21.4757 30 18.7689 30 16C30 12.287 28.525 8.72601 25.8995 6.1005C23.274 3.475 19.713 2 16 2ZM16 28C13.6266 28 11.3066 27.2962 9.33316 25.9776C7.35977 24.6591 5.8217 22.7849 4.91345 20.5922C4.0052 18.3995 3.76756 15.9867 4.23058 13.6589C4.69361 11.3311 5.83649 9.19295 7.51472 7.51472C9.19296 5.83649 11.3312 4.6936 13.6589 4.23058C15.9867 3.76755 18.3995 4.00519 20.5922 4.91345C22.7849 5.8217 24.6591 7.35977 25.9776 9.33316C27.2962 11.3065 28 13.6266 28 16C28 19.1826 26.7357 22.2348 24.4853 24.4853C22.2348 26.7357 19.1826 28 16 28Z" fill="white"/>
<path d="M16 25C16.8284 25 17.5 24.3284 17.5 23.5C17.5 22.6716 16.8284 22 16 22C15.1716 22 14.5 22.6716 14.5 23.5C14.5 24.3284 15.1716 25 16 25Z" fill="white"/>
<path d="M17 8.00001H15.5C14.9087 7.99869 14.3229 8.11419 13.7764 8.33987C13.2298 8.56555 12.7332 8.89696 12.3151 9.31509C11.897 9.73322 11.5655 10.2298 11.3399 10.7764C11.1142 11.3229 10.9987 11.9087 11 12.5V13H13V12.5C13 11.837 13.2634 11.2011 13.7322 10.7322C14.2011 10.2634 14.837 10 15.5 10H17C17.6631 10 18.2989 10.2634 18.7678 10.7322C19.2366 11.2011 19.5 11.837 19.5 12.5C19.5 13.1631 19.2366 13.7989 18.7678 14.2678C18.2989 14.7366 17.6631 15 17 15H15V19.5H17V17C18.1935 17 19.3381 16.5259 20.182 15.682C21.0259 14.8381 21.5 13.6935 21.5 12.5C21.5 11.3065 21.0259 10.1619 20.182 9.31803C19.3381 8.47412 18.1935 8.00001 17 8.00001Z" fill="white"/>
</g>
<defs>
<clipPath id="clip0_28_376">
<rect width="32" height="32" fill="white"/>
</clipPath>
</defs>
</svg>
