<svg width="18" height="16" viewBox="0 0 18 16" fill="none" xmlns="http://www.w3.org/2000/svg">
<path d="M16.5 4.25H12.75V1.75C12.75 1.41848 12.6183 1.10054 12.3839 0.866116C12.1495 0.631696 11.8315 0.5 11.5 0.5H6.5C6.16848 0.5 5.85054 0.631696 5.61612 0.866116C5.3817 1.10054 5.25 1.41848 5.25 1.75V4.25H1.5C1.16848 4.25 0.850537 4.3817 0.616116 4.61612C0.381696 4.85054 0.25 5.16848 0.25 5.5V14.25C0.25 14.5815 0.381696 14.8995 0.616116 15.1339C0.850537 15.3683 1.16848 15.5 1.5 15.5H16.5C16.8315 15.5 17.1495 15.3683 17.3839 15.1339C17.6183 14.8995 17.75 14.5815 17.75 14.25V5.5C17.75 5.16848 17.6183 4.85054 17.3839 4.61612C17.1495 4.3817 16.8315 4.25 16.5 4.25ZM6.5 1.75H11.5V4.25H6.5V1.75ZM1.5 14.25V5.5H16.5V14.25H1.5Z" fill="white"/>
</svg>
