<svg width="32" height="32" viewBox="0 0 32 32" fill="none" xmlns="http://www.w3.org/2000/svg">
<g opacity="0.5" clip-path="url(#clip0_41_187)">
<path d="M17 2H15V5H17V2Z" fill="white"/>
<path d="M30 15H27V17H30V15Z" fill="white"/>
<path d="M17 27H15V30H17V27Z" fill="white"/>
<path d="M5 15H2V17H5V15Z" fill="white"/>
<path d="M6.86417 5.4693L5.44995 6.88351L7.57127 9.00483L8.98549 7.59062L6.86417 5.4693Z" fill="white"/>
<path d="M25.121 5.45958L22.9996 7.5809L24.4138 8.99512L26.5352 6.87379L25.121 5.45958Z" fill="white"/>
<path d="M24.4165 23.0022L23.0023 24.4164L25.1236 26.5378L26.5379 25.1235L24.4165 23.0022Z" fill="white"/>
<path d="M5.46997 25.13L7.58997 23L8.99997 24.42L6.87997 26.54L5.46997 25.13Z" fill="white"/>
<path d="M16 8C14.4178 8 12.871 8.46919 11.5554 9.34824C10.2398 10.2273 9.21447 11.4767 8.60897 12.9385C8.00347 14.4003 7.84504 16.0089 8.15372 17.5607C8.4624 19.1126 9.22433 20.538 10.3431 21.6569C11.462 22.7757 12.8874 23.5376 14.4393 23.8463C15.9911 24.155 17.5997 23.9965 19.0615 23.391C20.5233 22.7855 21.7727 21.7602 22.6518 20.4446C23.5308 19.129 24 17.5823 24 16C24 13.8783 23.1571 11.8434 21.6569 10.3431C20.1566 8.84285 18.1217 8 16 8ZM16 22C14.4087 22 12.8826 21.3679 11.7574 20.2426C10.6321 19.1174 10 17.5913 10 16C10 14.4087 10.6321 12.8826 11.7574 11.7574C12.8826 10.6321 14.4087 10 16 10V22Z" fill="white"/>
</g>
<defs>
<clipPath id="clip0_41_187">
<rect width="32" height="32" fill="white"/>
</clipPath>
</defs>
</svg>
