<?xml version="1.0" encoding="UTF-8"?>
<svg width="14px" height="14px" viewBox="0 0 14 14" version="1.1" xmlns="http://www.w3.org/2000/svg" xmlns:xlink="http://www.w3.org/1999/xlink">
    <!-- Generator: sketchtool 64 (101010) - https://sketch.com -->
    <title>85DAF73E-F7EC-4382-B657-599CE31D6F14</title>
    <desc>Created with sketchtool.</desc>
    <g id="PrefixCTL" stroke="none" stroke-width="1" fill="none" fill-rule="evenodd">
        <g id="FullCTL-AssetSheet" transform="translate(-245.000000, -217.000000)" fill="#FFFFFF">
            <g id="icon/user" transform="translate(244.000000, 216.000000)">
                <path d="M8.00684262,1.87585533 C7.63277754,1.87585533 7.26327977,1.94656169 6.89833822,2.08797654 C6.53339668,2.22939139 6.20495421,2.40957857 5.91300098,2.6285435 C5.62104774,2.84750843 5.38612015,3.08471687 5.20821114,3.34017595 C5.03030214,3.59563503 4.94134897,3.83740518 4.94134897,4.06549365 L4.94134897,6.25513196 C4.94134897,6.68393828 5.04854894,7.23134239 5.2629521,7.8973607 C5.47735526,8.56337902 5.81264027,9.07885122 6.2688172,9.44379277 C6.38742321,9.53502815 6.47637637,9.65135152 6.53567937,9.79276637 C6.59498238,9.93418122 6.61551003,10.0824365 6.59726295,10.2375367 C6.56989234,10.3835133 6.51287108,10.5180835 6.42619746,10.6412512 C6.33952384,10.764419 6.22776217,10.8579339 6.09090909,10.9217986 L2.24535679,12.7419355 C2.19061556,12.7601826 2.1153475,12.8035187 2.01955034,12.8719453 C1.92375319,12.9403718 1.87585533,13.0658186 1.87585533,13.2482893 L1.87585533,14.1378299 L14.1241447,14.1241447 L14.1241447,13.2756598 C14.1241447,13.0384478 14.0671234,12.8901925 13.9530792,12.8308895 C13.8390349,12.7715865 13.777452,12.7419355 13.7683284,12.7419355 L9.95014663,10.9354839 C9.81329355,10.8716191 9.69925103,10.7781042 9.60801564,10.6549365 C9.51678025,10.5317687 9.46203984,10.3926368 9.44379277,10.2375367 C9.42554569,10.0824365 9.44607334,9.93418122 9.50537634,9.79276637 C9.56467935,9.65135152 9.65363251,9.53502815 9.77223851,9.44379277 C10.2466625,9.07885122 10.5819475,8.56109817 10.7781036,7.89051808 C10.9742597,7.219938 11.0723363,6.67481474 11.0723363,6.25513196 L11.0723363,4.06549365 C11.0723363,3.82828164 10.9811022,3.58194979 10.7986315,3.32649071 C10.6161607,3.07103163 10.3812331,2.83610404 10.0938416,2.62170088 C9.80645018,2.40729772 9.47800771,2.22939139 9.1085044,2.08797654 C8.73900109,1.94656169 8.37178416,1.87585533 8.00684262,1.87585533 Z M8.00684262,1 C8.49039017,1 8.96708791,1.09123402 9.43695015,1.27370479 C9.90681239,1.45617556 10.3264889,1.69338401 10.6959922,1.98533724 C11.0654955,2.27729048 11.3665678,2.60573294 11.599218,2.97067449 C11.8318682,3.33561603 11.9481916,3.7005521 11.9481916,4.06549365 L11.9481916,6.25513196 C11.9481916,6.51971458 11.9208214,6.82534854 11.8660802,7.17204301 C11.8113389,7.51873748 11.7201049,7.8722693 11.5923754,8.23264907 C11.4646458,8.59302885 11.2958629,8.93971811 11.0860215,9.27272727 C10.8761801,9.60573643 10.6207249,9.89084274 10.3196481,10.1280547 L14.1378299,11.9481916 C14.1378299,11.9481916 14.2815235,12.0280214 14.568915,12.1876833 C14.8563064,12.3473452 15,12.5549026 15,12.8103617 L15,14.1378299 C15,14.3750419 14.9156085,14.5780376 14.7468231,14.7468231 C14.5780376,14.9156085 14.3750419,15 14.1378299,15 L1.87585533,15 C1.62951978,15 1.42196239,14.9156085 1.25317693,14.7468231 C1.08439147,14.5780376 1,14.3750419 1,14.1378299 L1,12.8103617 C1,12.5731497 1.14597443,12.370154 1.43792766,12.2013685 C1.7298809,12.0325831 1.87585533,11.9481916 1.87585533,11.9481916 L5.72140762,10.1280547 C5.41120731,9.8817192 5.15119036,9.58520864 4.94134897,9.23851417 C4.73150759,8.89181971 4.5604438,8.53828789 4.42815249,8.17790811 C4.29586118,7.81752834 4.20234631,7.46627737 4.14760508,7.12414467 C4.09286385,6.78201197 4.06549365,6.49234397 4.06549365,6.25513196 L4.06549365,4.06549365 C4.06549365,3.7005521 4.17953617,3.33561603 4.40762463,2.97067449 C4.6357131,2.60573294 4.93450451,2.27729048 5.30400782,1.98533724 C5.67351113,1.69338401 6.09546847,1.45617556 6.56989247,1.27370479 C7.04431648,1.09123402 7.52329507,1 8.00684262,1 Z" id="icon-user"></path>
            </g>
        </g>
    </g>
</svg>