<svg width="20" height="20" viewBox="0 0 20 20" fill="none" xmlns="http://www.w3.org/2000/svg">
<g clip-path="url(#clip0_27_274)">
<path d="M14.375 16.2499C15.0654 16.2499 15.625 15.6903 15.625 14.9999C15.625 14.3096 15.0654 13.7499 14.375 13.7499C13.6846 13.7499 13.125 14.3096 13.125 14.9999C13.125 15.6903 13.6846 16.2499 14.375 16.2499Z" fill="white"/>
<path d="M19.2356 14.674C18.8493 13.6902 18.1829 12.8414 17.3189 12.2328C16.455 11.6242 15.4314 11.2824 14.375 11.2499C13.3186 11.2824 12.295 11.6242 11.4311 12.2328C10.5671 12.8414 9.90066 13.6902 9.51444 14.674L9.375 14.9999L9.51444 15.3259C9.90066 16.3096 10.5671 17.1584 11.4311 17.7671C12.295 18.3757 13.3186 18.7175 14.375 18.7499C15.4314 18.7175 16.455 18.3757 17.3189 17.7671C18.1829 17.1584 18.8493 16.3096 19.2356 15.3259L19.375 14.9999L19.2356 14.674ZM14.375 17.4999C13.8805 17.4999 13.3972 17.3533 12.9861 17.0786C12.575 16.8039 12.2545 16.4135 12.0653 15.9566C11.8761 15.4998 11.8266 14.9972 11.923 14.5122C12.0195 14.0273 12.2576 13.5818 12.6072 13.2322C12.9569 12.8825 13.4023 12.6444 13.8873 12.548C14.3722 12.4515 14.8749 12.501 15.3317 12.6902C15.7885 12.8795 16.179 13.1999 16.4537 13.611C16.7284 14.0221 16.875 14.5055 16.875 14.9999C16.8743 15.6627 16.6106 16.2982 16.1419 16.7669C15.6733 17.2356 15.0378 17.4992 14.375 17.4999Z" fill="white"/>
<path d="M7.74931 12.9999C7.23808 12.6163 6.83338 12.1084 6.57363 11.5244C6.31388 10.9404 6.20771 10.2997 6.2652 9.66317C6.32269 9.02661 6.54192 8.4153 6.90209 7.88729C7.26226 7.35928 7.75141 6.93209 8.3231 6.64628C8.89479 6.36046 9.53005 6.22552 10.1686 6.25424C10.8071 6.28297 11.4276 6.47443 11.9713 6.81042C12.5151 7.14642 12.9639 7.61581 13.2752 8.17404C13.5865 8.73226 13.7499 9.36078 13.75 9.99994H12.5C12.5 9.5738 12.3911 9.15473 12.1836 8.78253C11.976 8.41033 11.6768 8.09735 11.3143 7.87331C10.9518 7.64928 10.5381 7.52162 10.1124 7.50247C9.68666 7.48331 9.26312 7.57329 8.88197 7.76387C8.50081 7.95445 8.1747 8.23929 7.9346 8.59135C7.6945 8.94341 7.54837 9.351 7.5101 9.77542C7.47183 10.1998 7.54269 10.627 7.71594 11.0163C7.88919 11.4057 8.15909 11.7443 8.5 11.9999L7.74931 12.9999Z" fill="white"/>
<path d="M18.3154 6.90237L16.84 4.3475C16.6958 4.09706 16.4691 3.90443 16.1986 3.80246C15.9282 3.7005 15.6307 3.69552 15.357 3.78837L13.8357 4.30294C13.5736 4.12637 13.2996 3.96801 13.0157 3.829L12.7009 2.25487C12.6443 1.97147 12.4911 1.71645 12.2676 1.53322C12.0441 1.35 11.764 1.24989 11.475 1.24994H8.52498C8.236 1.24995 7.95596 1.35008 7.73249 1.5333C7.50903 1.71652 7.35595 1.97151 7.29929 2.25487L6.98448 3.829C6.6974 3.96653 6.42025 4.12389 6.15504 4.29994L4.64292 3.78837C4.36921 3.69552 4.07177 3.7005 3.80133 3.80246C3.53088 3.90443 3.30419 4.09706 3.15992 4.3475L1.68454 6.90237C1.5401 7.15267 1.48682 7.44527 1.53375 7.73041C1.58069 8.01556 1.72494 8.27564 1.94198 8.46644L3.14879 9.52694C3.1381 9.68406 3.12498 9.84031 3.12498 9.99994C3.12498 10.1611 3.13123 10.3204 3.14235 10.4784L1.94198 11.5334C1.72494 11.7242 1.58069 11.9843 1.53375 12.2695C1.48682 12.5546 1.5401 12.8472 1.68454 13.0975L3.15992 15.6524C3.30419 15.9028 3.53088 16.0954 3.80133 16.1974C4.07177 16.2994 4.36921 16.3044 4.64292 16.2115L6.16423 15.6969C6.42631 15.8736 6.7003 16.032 6.98423 16.1709L7.29904 17.745C7.3557 18.0284 7.50882 18.2834 7.73234 18.4667C7.95586 18.6499 8.23596 18.75 8.52498 18.7499H9.37498V17.4999H8.52498L8.08123 15.2807C7.46745 15.0528 6.89765 14.7205 6.39698 14.2986L4.24273 15.0274L2.76773 12.4725L4.47048 10.9756C4.35397 10.3293 4.35249 9.66745 4.4661 9.02062L2.76717 7.52737L4.24285 4.9725L6.38454 5.69694C6.8887 5.27469 7.46277 4.94379 8.08085 4.71919L8.52498 2.49994H11.475L11.9187 4.71919C12.5325 4.94713 13.1023 5.27937 13.603 5.70125L15.7572 4.9725L17.2322 7.52737L15.4836 9.06L16.3077 9.99994L18.0577 8.46644C18.2748 8.27568 18.4191 8.01562 18.4661 7.73047C18.5131 7.44532 18.4598 7.1527 18.3154 6.90237Z" fill="white"/>
</g>
<defs>
<clipPath id="clip0_27_274">
<rect width="20" height="20" fill="white"/>
</clipPath>
</defs>
</svg>
